<?xml version="1.0" encoding="UTF-8"?>
<svg xmlns="http://www.w3.org/2000/svg" xmlns:xlink="http://www.w3.org/1999/xlink" width="384pt" height="383.999986pt" viewBox="0 0 384 383.999986" version="1.2">
<defs>
<clipPath id="clip1">
  <path d="M 155 75.902344 L 310 75.902344 L 310 384 L 155 384 Z M 155 75.902344 "/>
</clipPath>
</defs>
<g id="surface1">
<rect x="0" y="0" width="384" height="383.999986" style="fill:rgb(23.098755%,34.899902%,59.999084%);fill-opacity:1;stroke:none;"/>
<g clip-path="url(#clip1)" clip-rule="nonzero">
<path style=" stroke:none;fill-rule:nonzero;fill:rgb(100%,100%,100%);fill-opacity:1;" d="M 281.363281 127.085938 L 309.503906 127.085938 L 309.503906 78.074219 C 304.652344 77.40625 287.953125 75.902344 268.507812 75.902344 C 179.476562 75.902344 203.699219 176.726562 200.152344 191.496094 L 155.367188 191.496094 L 155.367188 246.289062 L 200.140625 246.289062 L 200.140625 384.152344 L 255.035156 384.152344 L 255.035156 246.300781 L 297.996094 246.300781 L 304.816406 191.511719 L 255.023438 191.511719 C 257.4375 155.238281 245.25 127.085938 281.363281 127.085938 Z M 281.363281 127.085938 "/>
</g>
</g>
</svg>
