<?xml version="1.0" encoding="UTF-8"?>
<svg xmlns="http://www.w3.org/2000/svg" xmlns:xlink="http://www.w3.org/1999/xlink" width="384pt" height="383.999986pt" viewBox="0 0 384 383.999986" version="1.2">
<defs>
<clipPath id="clip1">
  <path d="M 79.582031 135 L 304.582031 135 L 304.582031 249 L 79.582031 249 Z M 79.582031 135 "/>
</clipPath>
</defs>
<g id="surface1">
<rect x="0" y="0" width="384" height="383.999986" style="fill:rgb(100%,46.699524%,0%);fill-opacity:1;stroke:none;"/>
<g clip-path="url(#clip1)" clip-rule="nonzero">
<path style=" stroke:none;fill-rule:nonzero;fill:rgb(100%,100%,100%);fill-opacity:1;" d="M 135.832031 248.328125 L 149.894531 248.328125 L 149.894531 159.777344 C 144.621094 161.265625 139.867188 163.972656 135.832031 167.53125 C 135.832031 167.53125 135.832031 248.328125 135.832031 248.328125 Z M 107.707031 188.421875 L 107.707031 248.230469 L 108.613281 248.328125 L 121.769531 248.328125 L 121.769531 188.328125 L 108.613281 188.328125 C 108.613281 188.332031 107.707031 188.421875 107.707031 188.421875 Z M 79.582031 218.320312 C 79.582031 229.210938 85.25 238.652344 93.644531 243.917969 L 93.644531 192.746094 C 85.25 198.003906 79.582031 207.449219 79.582031 218.320312 Z M 163.957031 248.328125 L 178.019531 248.328125 L 178.019531 163.679688 C 173.8125 161.054688 169.054688 159.328125 163.957031 158.660156 Z M 275.550781 188.332031 L 267.640625 188.332031 C 268.039062 185.882812 268.292969 183.402344 268.292969 180.835938 C 268.292969 155.980469 248.796875 135.835938 224.742188 135.835938 C 211.691406 135.835938 200.0625 141.839844 192.082031 151.246094 L 192.082031 248.328125 L 275.550781 248.328125 C 291.574219 248.328125 304.582031 234.898438 304.582031 218.316406 C 304.582031 201.753906 291.574219 188.332031 275.550781 188.332031 Z M 275.550781 188.332031 "/>
</g>
</g>
</svg>
