<?xml version="1.0" encoding="UTF-8"?>
<svg xmlns="http://www.w3.org/2000/svg" xmlns:xlink="http://www.w3.org/1999/xlink" width="384pt" height="383.999986pt" viewBox="0 0 384 383.999986" version="1.2">
<defs>
<clipPath id="clip1">
  <path d="M 118 142 L 291 142 L 291 304.582031 L 118 304.582031 Z M 118 142 "/>
</clipPath>
</defs>
<g id="surface1">
<rect x="0" y="0" width="384" height="383.999986" style="fill:rgb(0%,0%,0%);fill-opacity:1;stroke:none;"/>
<path style=" stroke:none;fill-rule:nonzero;fill:rgb(94.119263%,0%,26.669312%);fill-opacity:1;" d="M 159.605469 196.210938 C 141.765625 196.210938 127.351562 210.625 127.613281 228.292969 C 127.789062 239.628906 134.03125 249.472656 143.214844 254.96875 C 140.09375 250.175781 138.25 244.507812 138.160156 238.398438 C 137.898438 220.734375 152.3125 206.320312 170.152344 206.320312 C 173.667969 206.320312 177.050781 206.890625 180.214844 207.902344 L 180.214844 172.527344 C 176.921875 172.042969 173.535156 171.777344 170.152344 171.777344 C 169.976562 171.777344 169.84375 171.777344 169.667969 171.777344 L 169.667969 197.792969 C 166.503906 196.785156 163.121094 196.210938 159.605469 196.210938 Z M 159.605469 196.210938 "/>
<path style=" stroke:none;fill-rule:nonzero;fill:rgb(94.119263%,0%,26.669312%);fill-opacity:1;" d="M 236.730469 90.128906 L 227.324219 90.128906 C 229.960938 103.355469 237.390625 114.871094 247.761719 122.691406 C 240.949219 113.683594 236.816406 102.433594 236.730469 90.128906 Z M 236.730469 90.128906 "/>
<g clip-path="url(#clip1)" clip-rule="nonzero">
<path style=" stroke:none;fill-rule:nonzero;fill:rgb(94.119263%,0%,26.669312%);fill-opacity:1;" d="M 290.519531 143.960938 C 287.046875 143.960938 283.707031 143.609375 280.410156 142.996094 L 226.359375 149.9375 L 169.667969 293.242188 C 166.375 293.726562 162.988281 293.992188 159.605469 293.992188 C 144.578125 293.992188 130.25 289.113281 118.605469 280.105469 C 119.921875 281.6875 121.328125 283.222656 122.867188 284.71875 C 135.523438 297.199219 152.3125 304.097656 170.195312 304.097656 C 173.582031 304.097656 176.964844 303.835938 180.261719 303.351562 C 194.324219 301.285156 207.285156 294.824219 217.527344 284.71875 C 230.09375 272.28125 237.039062 255.800781 237.125 238.222656 L 236.464844 160.046875 C 242.441406 164.660156 248.992188 168.527344 256.066406 171.472656 C 267.007812 176.085938 278.609375 178.457031 290.519531 178.457031 "/>
</g>
<path style=" stroke:none;fill-rule:nonzero;fill:rgb(3.138733%,100%,97.648621%);fill-opacity:1;" d="M 122.734375 191.246094 C 135.261719 178.808594 151.914062 171.910156 169.667969 171.777344 L 169.667969 162.417969 C 166.375 161.933594 162.988281 161.671875 159.605469 161.671875 C 141.675781 161.671875 124.84375 168.570312 112.1875 181.140625 C 99.753906 193.488281 92.632812 210.363281 92.675781 227.898438 C 92.675781 245.5625 99.664062 262.128906 112.277344 274.65625 C 114.296875 276.632812 116.363281 278.476562 118.5625 280.148438 C 108.628906 268.328125 103.222656 253.5625 103.179688 238.003906 C 103.222656 220.46875 110.300781 203.59375 122.734375 191.246094 Z M 122.734375 191.246094 "/>
<path style=" stroke:none;fill-rule:nonzero;fill:rgb(3.138733%,100%,97.648621%);fill-opacity:1;" d="M 280.410156 142.996094 L 280.410156 133.589844 L 280.324219 133.589844 C 268.105469 133.589844 256.855469 129.546875 247.804688 122.691406 C 255.671875 133.0625 267.183594 140.445312 280.410156 142.996094 Z M 280.410156 142.996094 "/>
<path style=" stroke:none;fill-rule:nonzero;fill:rgb(3.138733%,100%,97.648621%);fill-opacity:1;" d="M 168.351562 269.511719 C 172.527344 269.734375 176.523438 269.160156 180.214844 267.976562 C 192.960938 263.800781 202.144531 251.933594 202.144531 237.960938 L 202.1875 185.664062 L 202.1875 90.128906 L 227.324219 90.128906 C 226.667969 86.832031 226.316406 83.492188 226.269531 80.019531 L 191.640625 80.019531 L 191.640625 175.515625 L 191.597656 227.808594 C 191.597656 241.785156 182.414062 253.648438 169.667969 257.824219 C 165.976562 259.054688 161.980469 259.625 157.804688 259.363281 C 152.488281 259.054688 147.519531 257.472656 143.214844 254.921875 C 148.621094 263.273438 157.847656 268.941406 168.351562 269.511719 Z M 168.351562 269.511719 "/>
<path style=" stroke:none;fill-rule:nonzero;fill:rgb(100%,100%,100%);fill-opacity:1;" d="M 169.667969 293.242188 C 183.730469 291.179688 196.695312 284.71875 206.933594 274.609375 C 219.503906 262.175781 226.445312 245.695312 226.535156 228.117188 L 226.359375 149.9375 C 232.335938 154.550781 238.882812 158.417969 245.957031 161.363281 C 256.902344 165.976562 268.503906 168.351562 280.410156 168.351562 L 280.410156 142.996094 C 267.183594 140.445312 255.671875 133.0625 247.804688 122.691406 C 237.433594 114.871094 229.960938 103.355469 227.371094 90.128906 L 202.1875 90.128906 L 202.1875 185.621094 L 202.144531 237.917969 C 202.144531 251.890625 192.960938 263.757812 180.214844 267.929688 C 176.523438 269.160156 172.527344 269.734375 168.351562 269.46875 C 157.804688 268.898438 148.621094 263.230469 143.214844 254.921875 C 134.03125 249.472656 127.789062 239.585938 127.613281 228.25 C 127.351562 210.582031 141.765625 196.167969 159.605469 196.167969 C 163.121094 196.167969 166.503906 196.738281 169.667969 197.75 L 169.667969 171.734375 C 151.914062 171.867188 135.261719 178.765625 122.734375 191.203125 C 110.300781 203.550781 103.179688 220.425781 103.222656 237.917969 C 103.222656 253.472656 108.628906 268.238281 118.605469 280.058594 C 130.292969 289.070312 144.578125 293.945312 159.605469 293.945312 C 162.988281 293.992188 166.375 293.726562 169.667969 293.242188 Z M 169.667969 293.242188 "/>
</g>
</svg>
