<?xml version="1.0" encoding="UTF-8"?>
<svg xmlns="http://www.w3.org/2000/svg" xmlns:xlink="http://www.w3.org/1999/xlink" width="384pt" height="383.999986pt" viewBox="0 0 384 383.999986" version="1.2">
<defs>
<clipPath id="clip1">
  <path d="M 79.582031 100 L 304.582031 100 L 304.582031 284 L 79.582031 284 Z M 79.582031 100 "/>
</clipPath>
</defs>
<g id="surface1">
<rect x="0" y="0" width="384" height="383.999986" style="fill:rgb(1.199341%,66.299438%,95.698547%);fill-opacity:1;stroke:none;"/>
<g clip-path="url(#clip1)" clip-rule="nonzero">
<path style=" stroke:none;fill-rule:nonzero;fill:rgb(100%,100%,100%);fill-opacity:1;" d="M 304.582031 122.316406 C 296.214844 125.988281 287.296875 128.421875 278.003906 129.601562 C 287.566406 123.890625 294.863281 114.921875 298.296875 104.105469 C 289.378906 109.421875 279.535156 113.175781 269.046875 115.273438 C 260.578125 106.257812 248.515625 100.675781 235.351562 100.675781 C 209.8125 100.675781 189.253906 121.402344 189.253906 146.8125 C 189.253906 150.46875 189.5625 153.984375 190.324219 157.332031 C 151.976562 155.460938 118.042969 137.082031 95.246094 109.085938 C 91.265625 115.988281 88.933594 123.890625 88.933594 132.398438 C 88.933594 148.375 97.160156 162.535156 109.421875 170.734375 C 102.011719 170.59375 94.742188 168.441406 88.582031 165.054688 C 88.582031 165.195312 88.582031 165.375 88.582031 165.558594 C 88.582031 187.976562 104.570312 206.59375 125.539062 210.882812 C 121.78125 211.910156 117.691406 212.402344 113.445312 212.402344 C 110.492188 212.402344 107.507812 212.234375 104.710938 211.613281 C 110.6875 229.882812 127.648438 243.3125 147.8125 243.746094 C 132.117188 256.023438 112.191406 263.421875 90.621094 263.421875 C 86.835938 263.421875 83.210938 263.25 79.582031 262.789062 C 100.015625 275.964844 124.230469 283.488281 150.34375 283.488281 C 235.226562 283.488281 281.632812 213.175781 281.632812 152.226562 C 281.632812 150.1875 281.5625 148.21875 281.460938 146.265625 C 290.617188 139.769531 298.308594 131.65625 304.582031 122.316406 Z M 304.582031 122.316406 "/>
</g>
</g>
</svg>
