<?xml version="1.0" encoding="UTF-8"?>
<svg xmlns="http://www.w3.org/2000/svg" xmlns:xlink="http://www.w3.org/1999/xlink" width="384pt" height="383.999986pt" viewBox="0 0 384 383.999986" version="1.2">
<defs>
<clipPath id="clip1">
  <path d="M 79.410156 93 L 304.410156 93 L 304.410156 291 L 79.410156 291 Z M 79.410156 93 "/>
</clipPath>
</defs>
<g id="surface1">
<rect x="0" y="0" width="384" height="383.999986" style="fill:rgb(9.799194%,69.799805%,89.7995%);fill-opacity:1;stroke:none;"/>
<g clip-path="url(#clip1)" clip-rule="nonzero">
<path style=" stroke:none;fill-rule:nonzero;fill:rgb(100%,100%,100%);fill-opacity:1;" d="M 271.570312 93.519531 C 240.371094 92.386719 219.296875 110.273438 208.175781 146.902344 C 213.894531 144.34375 219.457031 143.199219 224.835938 143.199219 C 264.390625 143.199219 215.734375 219.652344 203.621094 219.652344 C 189.351562 219.652344 180.773438 151.363281 177.867188 132.71875 C 173.828125 106.796875 163.054688 94.675781 145.550781 96.371094 C 138.15625 97.074219 127.035156 103.863281 112.234375 116.816406 C 101.453125 126.707031 90.519531 136.550781 79.410156 146.441406 L 89.996094 160.242188 C 100.074219 153.097656 105.953125 149.519531 107.628906 149.519531 C 136.617188 149.519531 134.707031 290.347656 180.597656 290.347656 C 224.675781 290.347656 302.265625 182.339844 304.195312 139.046875 L 304.316406 138.953125 C 305.574219 109.28125 294.746094 94.09375 271.570312 93.519531 Z M 271.570312 93.519531 "/>
</g>
</g>
</svg>
