<?xml version="1.0" encoding="UTF-8"?>
<svg xmlns="http://www.w3.org/2000/svg" xmlns:xlink="http://www.w3.org/1999/xlink" width="384pt" height="383.999986pt" viewBox="0 0 384 383.999986" version="1.2">
<g id="surface1">
<rect x="0" y="0" width="384" height="383.999986" style="fill:rgb(100%,0%,0%);fill-opacity:1;stroke:none;"/>
<path style=" stroke:none;fill-rule:nonzero;fill:rgb(100%,100%,100%);fill-opacity:1;" d="M 293.015625 139.242188 C 290.585938 130.226562 283.464844 123.121094 274.433594 120.695312 C 257.933594 116.1875 191.941406 116.1875 191.941406 116.1875 C 191.941406 116.1875 125.945312 116.1875 109.449219 120.523438 C 100.589844 122.949219 93.296875 130.230469 90.867188 139.242188 C 86.523438 155.710938 86.523438 189.859375 86.523438 189.859375 C 86.523438 189.859375 86.523438 224.179688 90.867188 240.472656 C 93.296875 249.488281 100.417969 256.59375 109.449219 259.023438 C 126.121094 263.527344 191.941406 263.527344 191.941406 263.527344 C 191.941406 263.527344 257.933594 263.527344 274.433594 259.195312 C 283.464844 256.769531 290.585938 249.660156 293.019531 240.648438 C 297.359375 224.179688 297.359375 190.03125 297.359375 190.03125 C 297.359375 190.03125 297.53125 155.710938 293.015625 139.242188 Z M 170.929688 221.40625 L 170.929688 158.3125 L 225.808594 189.859375 Z M 170.929688 221.40625 "/>
</g>
</svg>
