<?xml version="1.0" encoding="UTF-8"?>
<svg xmlns="http://www.w3.org/2000/svg" xmlns:xlink="http://www.w3.org/1999/xlink" width="506.25pt" height="337.499995pt" viewBox="0 0 506.25 337.499995" version="1.2">
<defs>
<clipPath id="clip1">
  <path d="M 0 0 L 505.5 0 L 505.5 337 L 0 337 Z M 0 0 "/>
</clipPath>
<clipPath id="clip2">
  <path d="M 0 0 L 505.5 0 L 505.5 337 L 0 337 Z M 0 0 "/>
</clipPath>
</defs>
<g id="surface1">
<g clip-path="url(#clip1)" clip-rule="nonzero">
<path style=" stroke:none;fill-rule:nonzero;fill:rgb(100%,100%,100%);fill-opacity:1;" d="M 0 0 L 505.5 0 L 505.5 337 L 0 337 Z M 0 0 "/>
<path style=" stroke:none;fill-rule:nonzero;fill:rgb(100%,100%,100%);fill-opacity:1;" d="M 0 0 L 505.5 0 L 505.5 337 L 0 337 Z M 0 0 "/>
</g>
<path style=" stroke:none;fill-rule:nonzero;fill:rgb(100%,100%,100%);fill-opacity:1;" d="M 0 0 L 170.183594 0 L 170.183594 170.183594 L 0 170.183594 "/>
<g clip-path="url(#clip2)" clip-rule="nonzero">
<path style=" stroke:none;fill-rule:nonzero;fill:rgb(0%,59.999084%,0%);fill-opacity:1;" d="M 0 168.5 L 168.5 168.5 L 168.5 0 L 505.5 0 L 505.5 337 L 0 337 M 48.863281 132.273438 L 83.40625 26.117188 L 117.949219 132.273438 L 27.800781 66.558594 L 139.855469 66.558594 "/>
</g>
</g>
</svg>
