<?xml version="1.0" encoding="UTF-8"?>
<svg xmlns="http://www.w3.org/2000/svg" xmlns:xlink="http://www.w3.org/1999/xlink" width="506.25pt" height="337.499995pt" viewBox="0 0 506.25 337.499995" version="1.2">
<defs>
<clipPath id="clip1">
  <path d="M 0 0 L 505.5 0 L 505.5 337 L 0 337 Z M 0 0 "/>
</clipPath>
<clipPath id="clip2">
  <path d="M 0 0 L 505.5 0 L 505.5 226 L 0 226 Z M 0 0 "/>
</clipPath>
<clipPath id="clip3">
  <path d="M 0 0 L 505.5 0 L 505.5 112 L 0 112 Z M 0 0 "/>
</clipPath>
<clipPath id="clip4">
  <path d="M 491 91 L 505.5 91 L 505.5 108 L 491 108 Z M 491 91 "/>
</clipPath>
<clipPath id="clip5">
  <path d="M 490 109 L 505.5 109 L 505.5 115 L 490 115 Z M 490 109 "/>
</clipPath>
<clipPath id="clip6">
  <path d="M 490 222 L 505.5 222 L 505.5 229 L 490 229 Z M 490 222 "/>
</clipPath>
<clipPath id="clip7">
  <path d="M 491 229 L 505.5 229 L 505.5 246 L 491 246 Z M 491 229 "/>
</clipPath>
</defs>
<g id="surface1">
<g clip-path="url(#clip1)" clip-rule="nonzero">
<path style=" stroke:none;fill-rule:nonzero;fill:rgb(100%,100%,100%);fill-opacity:1;" d="M 0 0 L 505.5 0 L 505.5 337 L 0 337 Z M 0 0 "/>
<path style=" stroke:none;fill-rule:nonzero;fill:rgb(100%,100%,100%);fill-opacity:1;" d="M 0 0 L 505.5 0 L 505.5 337 L 0 337 Z M 0 0 "/>
<rect x="0" y="0" width="506.25" height="337.499995" style="fill:rgb(85.488892%,0%,0%);fill-opacity:1;stroke:none;"/>
</g>
<g clip-path="url(#clip2)" clip-rule="nonzero">
<path style=" stroke:none;fill-rule:nonzero;fill:rgb(100%,100%,100%);fill-opacity:1;" d="M -45.25 -1.78125 L 550.996094 -1.78125 L 550.996094 225.496094 L -45.25 225.496094 Z M -45.25 -1.78125 "/>
</g>
<g clip-path="url(#clip3)" clip-rule="nonzero">
<path style=" stroke:none;fill-rule:nonzero;fill:rgb(13.729858%,62.348938%,25.099182%);fill-opacity:1;" d="M -45.25 -1.78125 L 550.996094 -1.78125 L 550.996094 111.855469 L -45.25 111.855469 Z M -45.25 -1.78125 "/>
</g>
<path style="fill:none;stroke-width:2;stroke-linecap:butt;stroke-linejoin:miter;stroke:rgb(100%,100%,100%);stroke-opacity:1;stroke-miterlimit:4;" d="M -0.00132304 1.000179 L 26.001228 1.000179 M 1.001043 10.001342 L 1.001043 5.001351 L 8.999333 5.001351 L 8.999333 8.999576 L 17.000572 8.999576 L 17.000572 5.001351 L 12.000535 5.001351 M 3.999296 8.999576 L 6.00108 8.999576 M 26.001228 8.999576 L 21.001191 8.999576 L 21.001191 5.001351 L 28.999481 5.001351 M 28.999481 0.0013589 L 28.999481 8.999576 L 37.00072 8.999576 L 37.00072 0.0013589 M 33.000101 0.0013589 L 33.000101 8.999576 " transform="matrix(1.32499,0,0,1.325783,-37.299028,93.295073)"/>
<path style="fill:none;stroke-width:2;stroke-linecap:butt;stroke-linejoin:miter;stroke:rgb(100%,100%,100%);stroke-opacity:1;stroke-miterlimit:4;" d="M -0.00066152 6.999784 L 8.999995 6.999784 M 9.999413 6.999784 L 19.000069 6.999784 " transform="matrix(2.64998,0,0,2.651567,-37.299028,93.295073)"/>
<path style="fill:none;stroke-width:2;stroke-linecap:butt;stroke-linejoin:miter;stroke:rgb(100%,100%,100%);stroke-opacity:1;stroke-miterlimit:4;" d="M -0.00066152 7.000549 L 8.999995 7.000549 M 9.999413 7.000549 L 19.000069 7.000549 " transform="matrix(2.64998,0,0,2.651567,-37.299028,206.933669)"/>
<path style="fill:none;stroke-width:2;stroke-linecap:butt;stroke-linejoin:miter;stroke:rgb(100%,100%,100%);stroke-opacity:1;stroke-miterlimit:4;" d="M -0.00132304 1.001094 L 26.001228 1.001094 M 1.001043 9.999311 L 1.001043 4.99932 L 8.999333 4.99932 L 8.999333 9.000492 L 17.000572 9.000492 L 17.000572 4.99932 L 12.000535 4.99932 M 3.999296 9.000492 L 6.00108 9.000492 M 26.001228 9.000492 L 21.001191 9.000492 L 21.001191 4.99932 L 28.999481 4.99932 M 28.999481 -0.000672002 L 28.999481 9.000492 L 37.00072 9.000492 L 37.00072 -0.000672002 M 33.000101 -0.000672002 L 33.000101 9.000492 " transform="matrix(1.32499,0,0,1.325783,-37.299028,230.797766)"/>
<path style="fill:none;stroke-width:2;stroke-linecap:butt;stroke-linejoin:miter;stroke:rgb(100%,100%,100%);stroke-opacity:1;stroke-miterlimit:4;" d="M -0.00102781 1.000179 L 25.998575 1.000179 M 1.001338 10.001342 L 1.001338 5.001351 L 8.999628 5.001351 L 8.999628 8.999576 L 17.000867 8.999576 L 17.000867 5.001351 L 12.00083 5.001351 M 3.999591 8.999576 L 6.001375 8.999576 M 25.998575 8.999576 L 20.998538 8.999576 L 20.998538 5.001351 L 28.999777 5.001351 M 28.999777 0.0013589 L 28.999777 8.999576 L 37.001015 8.999576 L 37.001015 0.0013589 M 33.000396 0.0013589 L 33.000396 8.999576 " transform="matrix(1.32499,0,0,1.325783,15.700581,93.295073)"/>
<path style="fill:none;stroke-width:2;stroke-linecap:butt;stroke-linejoin:miter;stroke:rgb(100%,100%,100%);stroke-opacity:1;stroke-miterlimit:4;" d="M -0.000513905 6.999784 L 9.000142 6.999784 M 9.99956 6.999784 L 19.000217 6.999784 " transform="matrix(2.64998,0,0,2.651567,15.700581,93.295073)"/>
<path style="fill:none;stroke-width:2;stroke-linecap:butt;stroke-linejoin:miter;stroke:rgb(100%,100%,100%);stroke-opacity:1;stroke-miterlimit:4;" d="M -0.000513905 7.000549 L 9.000142 7.000549 M 9.99956 7.000549 L 19.000217 7.000549 " transform="matrix(2.64998,0,0,2.651567,15.700581,206.933669)"/>
<path style="fill:none;stroke-width:2;stroke-linecap:butt;stroke-linejoin:miter;stroke:rgb(100%,100%,100%);stroke-opacity:1;stroke-miterlimit:4;" d="M -0.00102781 1.001094 L 25.998575 1.001094 M 1.001338 9.999311 L 1.001338 4.99932 L 8.999628 4.99932 L 8.999628 9.000492 L 17.000867 9.000492 L 17.000867 4.99932 L 12.00083 4.99932 M 3.999591 9.000492 L 6.001375 9.000492 M 25.998575 9.000492 L 20.998538 9.000492 L 20.998538 4.99932 L 28.999777 4.99932 M 28.999777 -0.000672002 L 28.999777 9.000492 L 37.001015 9.000492 L 37.001015 -0.000672002 M 33.000396 -0.000672002 L 33.000396 9.000492 " transform="matrix(1.32499,0,0,1.325783,15.700581,230.797766)"/>
<path style="fill:none;stroke-width:2;stroke-linecap:butt;stroke-linejoin:miter;stroke:rgb(100%,100%,100%);stroke-opacity:1;stroke-miterlimit:4;" d="M -0.000733484 1.000179 L 25.998869 1.000179 M 0.998684 10.001342 L 0.998684 5.001351 L 8.999923 5.001351 L 8.999923 8.999576 L 17.001161 8.999576 L 17.001161 5.001351 L 12.001124 5.001351 M 3.999886 8.999576 L 5.998721 8.999576 M 25.998869 8.999576 L 20.998832 8.999576 L 20.998832 5.001351 L 29.000071 5.001351 M 29.000071 0.0013589 L 29.000071 8.999576 L 37.001309 8.999576 L 37.001309 0.0013589 M 33.00069 0.0013589 L 33.00069 8.999576 " transform="matrix(1.32499,0,0,1.325783,68.700191,93.295073)"/>
<path style="fill:none;stroke-width:2;stroke-linecap:butt;stroke-linejoin:miter;stroke:rgb(100%,100%,100%);stroke-opacity:1;stroke-miterlimit:4;" d="M -0.000366742 6.999784 L 9.00029 6.999784 M 9.999707 6.999784 L 19.000364 6.999784 " transform="matrix(2.64998,0,0,2.651567,68.700191,93.295073)"/>
<path style="fill:none;stroke-width:2;stroke-linecap:butt;stroke-linejoin:miter;stroke:rgb(100%,100%,100%);stroke-opacity:1;stroke-miterlimit:4;" d="M -0.000366742 7.000549 L 9.00029 7.000549 M 9.999707 7.000549 L 19.000364 7.000549 " transform="matrix(2.64998,0,0,2.651567,68.700191,206.933669)"/>
<path style="fill:none;stroke-width:2;stroke-linecap:butt;stroke-linejoin:miter;stroke:rgb(100%,100%,100%);stroke-opacity:1;stroke-miterlimit:4;" d="M -0.000733484 1.001094 L 25.998869 1.001094 M 0.998684 9.999311 L 0.998684 4.99932 L 8.999923 4.99932 L 8.999923 9.000492 L 17.001161 9.000492 L 17.001161 4.99932 L 12.001124 4.99932 M 3.999886 9.000492 L 5.998721 9.000492 M 25.998869 9.000492 L 20.998832 9.000492 L 20.998832 4.99932 L 29.000071 4.99932 M 29.000071 -0.000672002 L 29.000071 9.000492 L 37.001309 9.000492 L 37.001309 -0.000672002 M 33.00069 -0.000672002 L 33.00069 9.000492 " transform="matrix(1.32499,0,0,1.325783,68.700191,230.797766)"/>
<path style="fill:none;stroke-width:2;stroke-linecap:butt;stroke-linejoin:miter;stroke:rgb(100%,100%,100%);stroke-opacity:1;stroke-miterlimit:4;" d="M -0.000437531 1.000179 L 25.999165 1.000179 M 0.99898 10.001342 L 0.99898 5.001351 L 9.000219 5.001351 L 9.000219 8.999576 L 17.001457 8.999576 L 17.001457 5.001351 L 12.00142 5.001351 M 4.000182 8.999576 L 5.999017 8.999576 M 25.999165 8.999576 L 20.999128 8.999576 L 20.999128 5.001351 L 29.000367 5.001351 M 29.000367 0.0013589 L 29.000367 8.999576 L 36.998657 8.999576 L 36.998657 0.0013589 M 33.000986 0.0013589 L 33.000986 8.999576 " transform="matrix(1.32499,0,0,1.325783,121.699798,93.295073)"/>
<path style="fill:none;stroke-width:2;stroke-linecap:butt;stroke-linejoin:miter;stroke:rgb(100%,100%,100%);stroke-opacity:1;stroke-miterlimit:4;" d="M -0.000218765 6.999784 L 9.000438 6.999784 M 9.999855 6.999784 L 19.000512 6.999784 " transform="matrix(2.64998,0,0,2.651567,121.699798,93.295073)"/>
<path style="fill:none;stroke-width:2;stroke-linecap:butt;stroke-linejoin:miter;stroke:rgb(100%,100%,100%);stroke-opacity:1;stroke-miterlimit:4;" d="M -0.000218765 7.000549 L 9.000438 7.000549 M 9.999855 7.000549 L 19.000512 7.000549 " transform="matrix(2.64998,0,0,2.651567,121.699798,206.933669)"/>
<path style="fill:none;stroke-width:2;stroke-linecap:butt;stroke-linejoin:miter;stroke:rgb(100%,100%,100%);stroke-opacity:1;stroke-miterlimit:4;" d="M -0.000437531 1.001094 L 25.999165 1.001094 M 0.99898 9.999311 L 0.99898 4.99932 L 9.000219 4.99932 L 9.000219 9.000492 L 17.001457 9.000492 L 17.001457 4.99932 L 12.00142 4.99932 M 4.000182 9.000492 L 5.999017 9.000492 M 25.999165 9.000492 L 20.999128 9.000492 L 20.999128 4.99932 L 29.000367 4.99932 M 29.000367 -0.000672002 L 29.000367 9.000492 L 36.998657 9.000492 L 36.998657 -0.000672002 M 33.000986 -0.000672002 L 33.000986 9.000492 " transform="matrix(1.32499,0,0,1.325783,121.699798,230.797766)"/>
<path style="fill:none;stroke-width:2;stroke-linecap:butt;stroke-linejoin:miter;stroke:rgb(100%,100%,100%);stroke-opacity:1;stroke-miterlimit:4;" d="M -0.000141577 1.000179 L 25.999461 1.000179 M 0.999276 10.001342 L 0.999276 5.001351 L 9.000515 5.001351 L 9.000515 8.999576 L 16.998805 8.999576 L 16.998805 5.001351 L 11.998768 5.001351 M 4.000478 8.999576 L 5.999313 8.999576 M 25.999461 8.999576 L 20.999424 8.999576 L 20.999424 5.001351 L 29.000663 5.001351 M 29.000663 0.0013589 L 29.000663 8.999576 L 36.998953 8.999576 L 36.998953 0.0013589 M 33.001282 0.0013589 L 33.001282 8.999576 " transform="matrix(1.32499,0,0,1.325783,174.699406,93.295073)"/>
<path style="fill:none;stroke-width:2;stroke-linecap:butt;stroke-linejoin:miter;stroke:rgb(100%,100%,100%);stroke-opacity:1;stroke-miterlimit:4;" d="M -0.0000707886 6.999784 L 9.000586 6.999784 M 10.000003 6.999784 L 19.00066 6.999784 " transform="matrix(2.64998,0,0,2.651567,174.699406,93.295073)"/>
<path style="fill:none;stroke-width:2;stroke-linecap:butt;stroke-linejoin:miter;stroke:rgb(100%,100%,100%);stroke-opacity:1;stroke-miterlimit:4;" d="M -0.0000707886 7.000549 L 9.000586 7.000549 M 10.000003 7.000549 L 19.00066 7.000549 " transform="matrix(2.64998,0,0,2.651567,174.699406,206.933669)"/>
<path style="fill:none;stroke-width:2;stroke-linecap:butt;stroke-linejoin:miter;stroke:rgb(100%,100%,100%);stroke-opacity:1;stroke-miterlimit:4;" d="M -0.000141577 1.001094 L 25.999461 1.001094 M 0.999276 9.999311 L 0.999276 4.99932 L 9.000515 4.99932 L 9.000515 9.000492 L 16.998805 9.000492 L 16.998805 4.99932 L 11.998768 4.99932 M 4.000478 9.000492 L 5.999313 9.000492 M 25.999461 9.000492 L 20.999424 9.000492 L 20.999424 4.99932 L 29.000663 4.99932 M 29.000663 -0.000672002 L 29.000663 9.000492 L 36.998953 9.000492 L 36.998953 -0.000672002 M 33.001282 -0.000672002 L 33.001282 9.000492 " transform="matrix(1.32499,0,0,1.325783,174.699406,230.797766)"/>
<path style="fill:none;stroke-width:2;stroke-linecap:butt;stroke-linejoin:miter;stroke:rgb(100%,100%,100%);stroke-opacity:1;stroke-miterlimit:4;" d="M 0.00016342 1.000179 L 25.999766 1.000179 M 0.999581 10.001342 L 0.999581 5.001351 L 9.00082 5.001351 L 9.00082 8.999576 L 16.99911 8.999576 L 16.99911 5.001351 L 11.999073 5.001351 M 4.000783 8.999576 L 5.999618 8.999576 M 25.999766 8.999576 L 20.999729 8.999576 L 20.999729 5.001351 L 29.000968 5.001351 M 29.000968 0.0013589 L 29.000968 8.999576 L 36.999258 8.999576 L 36.999258 0.0013589 M 32.998639 0.0013589 L 32.998639 8.999576 " transform="matrix(1.32499,0,0,1.325783,227.699002,93.295073)"/>
<path style="fill:none;stroke-width:2;stroke-linecap:butt;stroke-linejoin:miter;stroke:rgb(100%,100%,100%);stroke-opacity:1;stroke-miterlimit:4;" d="M 0.0000817098 6.999784 L 8.999264 6.999784 M 10.000156 6.999784 L 18.999338 6.999784 " transform="matrix(2.64998,0,0,2.651567,227.699002,93.295073)"/>
<path style="fill:none;stroke-width:2;stroke-linecap:butt;stroke-linejoin:miter;stroke:rgb(100%,100%,100%);stroke-opacity:1;stroke-miterlimit:4;" d="M 0.0000817098 7.000549 L 8.999264 7.000549 M 10.000156 7.000549 L 18.999338 7.000549 " transform="matrix(2.64998,0,0,2.651567,227.699002,206.933669)"/>
<path style="fill:none;stroke-width:2;stroke-linecap:butt;stroke-linejoin:miter;stroke:rgb(100%,100%,100%);stroke-opacity:1;stroke-miterlimit:4;" d="M 0.00016342 1.001094 L 25.999766 1.001094 M 0.999581 9.999311 L 0.999581 4.99932 L 9.00082 4.99932 L 9.00082 9.000492 L 16.99911 9.000492 L 16.99911 4.99932 L 11.999073 4.99932 M 4.000783 9.000492 L 5.999618 9.000492 M 25.999766 9.000492 L 20.999729 9.000492 L 20.999729 4.99932 L 29.000968 4.99932 M 29.000968 -0.000672002 L 29.000968 9.000492 L 36.999258 9.000492 L 36.999258 -0.000672002 M 32.998639 -0.000672002 L 32.998639 9.000492 " transform="matrix(1.32499,0,0,1.325783,227.699002,230.797766)"/>
<path style="fill:none;stroke-width:2;stroke-linecap:butt;stroke-linejoin:miter;stroke:rgb(100%,100%,100%);stroke-opacity:1;stroke-miterlimit:4;" d="M 0.000459373 1.000179 L 26.000062 1.000179 M 0.999877 10.001342 L 0.999877 5.001351 L 9.001116 5.001351 L 9.001116 8.999576 L 16.999406 8.999576 L 16.999406 5.001351 L 11.999369 5.001351 M 4.001079 8.999576 L 5.999914 8.999576 M 26.000062 8.999576 L 21.000025 8.999576 L 21.000025 5.001351 L 29.001264 5.001351 M 29.001264 0.0013589 L 29.001264 8.999576 L 36.999554 8.999576 L 36.999554 0.0013589 M 32.998935 0.0013589 L 32.998935 8.999576 " transform="matrix(1.32499,0,0,1.325783,280.69861,93.295073)"/>
<path style="fill:none;stroke-width:2;stroke-linecap:butt;stroke-linejoin:miter;stroke:rgb(100%,100%,100%);stroke-opacity:1;stroke-miterlimit:4;" d="M 0.000229687 6.999784 L 8.999412 6.999784 M 10.000304 6.999784 L 18.999486 6.999784 " transform="matrix(2.64998,0,0,2.651567,280.69861,93.295073)"/>
<path style="fill:none;stroke-width:2;stroke-linecap:butt;stroke-linejoin:miter;stroke:rgb(100%,100%,100%);stroke-opacity:1;stroke-miterlimit:4;" d="M 0.000229687 7.000549 L 8.999412 7.000549 M 10.000304 7.000549 L 18.999486 7.000549 " transform="matrix(2.64998,0,0,2.651567,280.69861,206.933669)"/>
<path style="fill:none;stroke-width:2;stroke-linecap:butt;stroke-linejoin:miter;stroke:rgb(100%,100%,100%);stroke-opacity:1;stroke-miterlimit:4;" d="M 0.000459373 1.001094 L 26.000062 1.001094 M 0.999877 9.999311 L 0.999877 4.99932 L 9.001116 4.99932 L 9.001116 9.000492 L 16.999406 9.000492 L 16.999406 4.99932 L 11.999369 4.99932 M 4.001079 9.000492 L 5.999914 9.000492 M 26.000062 9.000492 L 21.000025 9.000492 L 21.000025 4.99932 L 29.001264 4.99932 M 29.001264 -0.000672002 L 29.001264 9.000492 L 36.999554 9.000492 L 36.999554 -0.000672002 M 32.998935 -0.000672002 L 32.998935 9.000492 " transform="matrix(1.32499,0,0,1.325783,280.69861,230.797766)"/>
<path style="fill:none;stroke-width:2;stroke-linecap:butt;stroke-linejoin:miter;stroke:rgb(100%,100%,100%);stroke-opacity:1;stroke-miterlimit:4;" d="M 0.000742666 1.000179 L 26.000346 1.000179 M 1.00016 10.001342 L 1.00016 5.001351 L 9.001399 5.001351 L 9.001399 8.999576 L 16.999689 8.999576 L 16.999689 5.001351 L 11.999652 5.001351 M 4.001362 8.999576 L 6.000197 8.999576 M 26.000346 8.999576 L 21.000309 8.999576 L 21.000309 5.001351 L 28.998599 5.001351 M 28.998599 0.0013589 L 28.998599 8.999576 L 36.999838 8.999576 L 36.999838 0.0013589 M 32.999218 0.0013589 L 32.999218 8.999576 " transform="matrix(1.32499,0,0,1.325783,333.698235,93.295073)"/>
<path style="fill:none;stroke-width:2;stroke-linecap:butt;stroke-linejoin:miter;stroke:rgb(100%,100%,100%);stroke-opacity:1;stroke-miterlimit:4;" d="M 0.000371333 6.999784 L 8.999554 6.999784 M 10.000446 6.999784 L 18.999628 6.999784 " transform="matrix(2.64998,0,0,2.651567,333.698235,93.295073)"/>
<path style="fill:none;stroke-width:2;stroke-linecap:butt;stroke-linejoin:miter;stroke:rgb(100%,100%,100%);stroke-opacity:1;stroke-miterlimit:4;" d="M 0.000371333 7.000549 L 8.999554 7.000549 M 10.000446 7.000549 L 18.999628 7.000549 " transform="matrix(2.64998,0,0,2.651567,333.698235,206.933669)"/>
<path style="fill:none;stroke-width:2;stroke-linecap:butt;stroke-linejoin:miter;stroke:rgb(100%,100%,100%);stroke-opacity:1;stroke-miterlimit:4;" d="M 0.000742666 1.001094 L 26.000346 1.001094 M 1.00016 9.999311 L 1.00016 4.99932 L 9.001399 4.99932 L 9.001399 9.000492 L 16.999689 9.000492 L 16.999689 4.99932 L 11.999652 4.99932 M 4.001362 9.000492 L 6.000197 9.000492 M 26.000346 9.000492 L 21.000309 9.000492 L 21.000309 4.99932 L 28.998599 4.99932 M 28.998599 -0.000672002 L 28.998599 9.000492 L 36.999838 9.000492 L 36.999838 -0.000672002 M 32.999218 -0.000672002 L 32.999218 9.000492 " transform="matrix(1.32499,0,0,1.325783,333.698235,230.797766)"/>
<path style="fill:none;stroke-width:2;stroke-linecap:butt;stroke-linejoin:miter;stroke:rgb(100%,100%,100%);stroke-opacity:1;stroke-miterlimit:4;" d="M 0.00102777 1.000179 L 26.000631 1.000179 M 1.000446 10.001342 L 1.000446 5.001351 L 8.998736 5.001351 L 8.998736 8.999576 L 16.999974 8.999576 L 16.999974 5.001351 L 11.999937 5.001351 M 3.998699 8.999576 L 6.000483 8.999576 M 26.000631 8.999576 L 21.000594 8.999576 L 21.000594 5.001351 L 28.998884 5.001351 M 28.998884 0.0013589 L 28.998884 8.999576 L 37.000123 8.999576 L 37.000123 0.0013589 M 32.999503 0.0013589 L 32.999503 8.999576 " transform="matrix(1.32499,0,0,1.325783,386.697857,93.295073)"/>
<path style="fill:none;stroke-width:2;stroke-linecap:butt;stroke-linejoin:miter;stroke:rgb(100%,100%,100%);stroke-opacity:1;stroke-miterlimit:4;" d="M 0.000513884 6.999784 L 8.999696 6.999784 M 10.000588 6.999784 L 18.99977 6.999784 " transform="matrix(2.64998,0,0,2.651567,386.697857,93.295073)"/>
<path style="fill:none;stroke-width:2;stroke-linecap:butt;stroke-linejoin:miter;stroke:rgb(100%,100%,100%);stroke-opacity:1;stroke-miterlimit:4;" d="M 0.000513884 7.000549 L 8.999696 7.000549 M 10.000588 7.000549 L 18.99977 7.000549 " transform="matrix(2.64998,0,0,2.651567,386.697857,206.933669)"/>
<path style="fill:none;stroke-width:2;stroke-linecap:butt;stroke-linejoin:miter;stroke:rgb(100%,100%,100%);stroke-opacity:1;stroke-miterlimit:4;" d="M 0.00102777 1.001094 L 26.000631 1.001094 M 1.000446 9.999311 L 1.000446 4.99932 L 8.998736 4.99932 L 8.998736 9.000492 L 16.999974 9.000492 L 16.999974 4.99932 L 11.999937 4.99932 M 3.998699 9.000492 L 6.000483 9.000492 M 26.000631 9.000492 L 21.000594 9.000492 L 21.000594 4.99932 L 28.998884 4.99932 M 28.998884 -0.000672002 L 28.998884 9.000492 L 37.000123 9.000492 L 37.000123 -0.000672002 M 32.999503 -0.000672002 L 32.999503 9.000492 " transform="matrix(1.32499,0,0,1.325783,386.697857,230.797766)"/>
<path style="fill:none;stroke-width:2;stroke-linecap:butt;stroke-linejoin:miter;stroke:rgb(100%,100%,100%);stroke-opacity:1;stroke-miterlimit:4;" d="M 0.00134904 1.000179 L 26.000952 1.000179 M 1.000767 10.001342 L 1.000767 5.001351 L 8.999057 5.001351 L 8.999057 8.999576 L 17.000296 8.999576 L 17.000296 5.001351 L 12.000259 5.001351 M 3.99902 8.999576 L 6.000804 8.999576 M 26.000952 8.999576 L 21.000915 8.999576 L 21.000915 5.001351 L 28.999205 5.001351 M 28.999205 0.0013589 L 28.999205 8.999576 L 37.000444 8.999576 L 37.000444 0.0013589 M 32.999825 0.0013589 L 32.999825 8.999576 " transform="matrix(1.32499,0,0,1.325783,439.697431,93.295073)"/>
<path style="fill:none;stroke-width:2;stroke-linecap:butt;stroke-linejoin:miter;stroke:rgb(100%,100%,100%);stroke-opacity:1;stroke-miterlimit:4;" d="M 0.000674521 6.999784 L 8.999857 6.999784 M 9.999275 6.999784 L 18.999931 6.999784 " transform="matrix(2.64998,0,0,2.651567,439.697431,93.295073)"/>
<path style="fill:none;stroke-width:2;stroke-linecap:butt;stroke-linejoin:miter;stroke:rgb(100%,100%,100%);stroke-opacity:1;stroke-miterlimit:4;" d="M 0.000674521 7.000549 L 8.999857 7.000549 M 9.999275 7.000549 L 18.999931 7.000549 " transform="matrix(2.64998,0,0,2.651567,439.697431,206.933669)"/>
<path style="fill:none;stroke-width:2;stroke-linecap:butt;stroke-linejoin:miter;stroke:rgb(100%,100%,100%);stroke-opacity:1;stroke-miterlimit:4;" d="M 0.00134904 1.001094 L 26.000952 1.001094 M 1.000767 9.999311 L 1.000767 4.99932 L 8.999057 4.99932 L 8.999057 9.000492 L 17.000296 9.000492 L 17.000296 4.99932 L 12.000259 4.99932 M 3.99902 9.000492 L 6.000804 9.000492 M 26.000952 9.000492 L 21.000915 9.000492 L 21.000915 4.99932 L 28.999205 4.99932 M 28.999205 -0.000672002 L 28.999205 9.000492 L 37.000444 9.000492 L 37.000444 -0.000672002 M 32.999825 -0.000672002 L 32.999825 9.000492 " transform="matrix(1.32499,0,0,1.325783,439.697431,230.797766)"/>
<g clip-path="url(#clip4)" clip-rule="nonzero">
<path style="fill:none;stroke-width:2;stroke-linecap:butt;stroke-linejoin:miter;stroke:rgb(100%,100%,100%);stroke-opacity:1;stroke-miterlimit:4;" d="M -0.00134474 1.000179 L 26.001206 1.000179 M 1.001021 10.001342 L 1.001021 5.001351 L 8.999312 5.001351 L 8.999312 8.999576 L 17.00055 8.999576 L 17.00055 5.001351 L 12.000513 5.001351 M 3.999275 8.999576 L 6.001058 8.999576 M 26.001206 8.999576 L 21.001169 8.999576 L 21.001169 5.001351 L 28.99946 5.001351 M 28.99946 0.0013589 L 28.99946 8.999576 L 37.000698 8.999576 L 37.000698 0.0013589 M 33.000079 0.0013589 L 33.000079 8.999576 " transform="matrix(1.32499,0,0,1.325783,492.697094,93.295073)"/>
</g>
<g clip-path="url(#clip5)" clip-rule="nonzero">
<path style="fill:none;stroke-width:2;stroke-linecap:butt;stroke-linejoin:miter;stroke:rgb(100%,100%,100%);stroke-opacity:1;stroke-miterlimit:4;" d="M -0.000672369 6.999784 L 8.999984 6.999784 M 9.999402 6.999784 L 19.000058 6.999784 " transform="matrix(2.64998,0,0,2.651567,492.697094,93.295073)"/>
</g>
<g clip-path="url(#clip6)" clip-rule="nonzero">
<path style="fill:none;stroke-width:2;stroke-linecap:butt;stroke-linejoin:miter;stroke:rgb(100%,100%,100%);stroke-opacity:1;stroke-miterlimit:4;" d="M -0.000672369 7.000549 L 8.999984 7.000549 M 9.999402 7.000549 L 19.000058 7.000549 " transform="matrix(2.64998,0,0,2.651567,492.697094,206.933669)"/>
</g>
<g clip-path="url(#clip7)" clip-rule="nonzero">
<path style="fill:none;stroke-width:2;stroke-linecap:butt;stroke-linejoin:miter;stroke:rgb(100%,100%,100%);stroke-opacity:1;stroke-miterlimit:4;" d="M -0.00134474 1.001094 L 26.001206 1.001094 M 1.001021 9.999311 L 1.001021 4.99932 L 8.999312 4.99932 L 8.999312 9.000492 L 17.00055 9.000492 L 17.00055 4.99932 L 12.000513 4.99932 M 3.999275 9.000492 L 6.001058 9.000492 M 26.001206 9.000492 L 21.001169 9.000492 L 21.001169 4.99932 L 28.99946 4.99932 M 28.99946 -0.000672002 L 28.99946 9.000492 L 37.000698 9.000492 L 37.000698 -0.000672002 M 33.000079 -0.000672002 L 33.000079 9.000492 " transform="matrix(1.32499,0,0,1.325783,492.697094,230.797766)"/>
</g>
<path style=" stroke:none;fill-rule:nonzero;fill:rgb(85.488892%,0%,0%);fill-opacity:1;" d="M 229.527344 204.316406 C 230.585938 204.660156 231.65625 204.957031 232.738281 205.210938 C 233.820312 205.460938 234.910156 205.667969 236.011719 205.824219 C 237.113281 205.984375 238.21875 206.09375 239.328125 206.15625 C 240.4375 206.21875 241.546875 206.234375 242.65625 206.203125 C 243.769531 206.171875 244.875 206.089844 245.980469 205.964844 C 247.085938 205.835938 248.179688 205.660156 249.269531 205.441406 C 250.359375 205.21875 251.4375 204.949219 252.503906 204.636719 C 253.570312 204.324219 254.621094 203.964844 255.65625 203.558594 C 256.691406 203.15625 257.707031 202.707031 258.703125 202.214844 C 259.703125 201.722656 260.675781 201.191406 261.625 200.613281 C 262.578125 200.039062 263.503906 199.425781 264.402344 198.769531 C 265.300781 198.113281 266.167969 197.421875 267.007812 196.691406 C 267.847656 195.964844 268.652344 195.199219 269.425781 194.402344 C 270.199219 193.601562 270.9375 192.773438 271.640625 191.910156 C 272.339844 191.046875 273.003906 190.15625 273.632812 189.238281 C 274.257812 188.320312 274.84375 187.375 275.386719 186.40625 C 275.933594 185.4375 276.433594 184.445312 276.894531 183.433594 C 277.355469 182.421875 277.769531 181.390625 278.140625 180.34375 C 278.511719 179.292969 278.839844 178.230469 279.121094 177.15625 C 279.398438 176.078125 279.632812 174.992188 279.820312 173.898438 C 280.007812 172.800781 280.148438 171.699219 280.238281 170.589844 C 280.332031 169.480469 280.378906 168.371094 280.375 167.261719 C 280.371094 166.148438 280.320312 165.039062 280.222656 163.929688 C 280.125 162.824219 279.980469 161.722656 279.789062 160.625 C 279.597656 159.53125 279.355469 158.445312 279.070312 157.371094 C 278.785156 156.296875 278.457031 155.234375 278.078125 154.1875 C 277.703125 153.140625 277.28125 152.113281 276.816406 151.101562 C 276.351562 150.09375 275.84375 149.105469 275.296875 148.136719 C 274.746094 147.171875 274.15625 146.230469 273.527344 145.3125 C 272.894531 144.398438 272.226562 143.511719 271.519531 142.652344 C 270.816406 141.792969 270.074219 140.964844 269.296875 140.171875 C 268.519531 139.375 267.707031 138.617188 266.867188 137.890625 C 267.96875 139.523438 268.953125 141.222656 269.816406 142.988281 C 270.683594 144.753906 271.421875 146.574219 272.039062 148.441406 C 272.652344 150.3125 273.132812 152.214844 273.484375 154.152344 C 273.835938 156.089844 274.050781 158.039062 274.132812 160.007812 C 274.214844 161.972656 274.15625 163.933594 273.964844 165.894531 C 273.777344 167.851562 273.449219 169.789062 272.992188 171.703125 C 272.53125 173.617188 271.941406 175.488281 271.222656 177.320312 C 270.503906 179.152344 269.664062 180.925781 268.699219 182.640625 C 267.734375 184.359375 266.65625 186 265.464844 187.5625 C 264.273438 189.128906 262.980469 190.605469 261.585938 191.992188 C 260.191406 193.378906 258.707031 194.664062 257.132812 195.84375 C 255.558594 197.023438 253.910156 198.09375 252.191406 199.042969 C 250.46875 199.996094 248.691406 200.824219 246.855469 201.53125 C 245.019531 202.238281 243.140625 202.8125 241.226562 203.257812 C 239.308594 203.703125 237.371094 204.015625 235.414062 204.195312 C 233.453125 204.371094 231.492188 204.410156 229.527344 204.316406 "/>
<path style=" stroke:none;fill-rule:nonzero;fill:rgb(85.488892%,0%,0%);fill-opacity:1;" d="M 279.207031 196.859375 C 280.601562 196.054688 281.929688 195.148438 283.191406 194.144531 C 284.449219 193.140625 285.628906 192.050781 286.726562 190.871094 C 287.828125 189.691406 288.832031 188.4375 289.742188 187.109375 C 290.65625 185.78125 291.464844 184.390625 292.171875 182.945312 C 292.878906 181.496094 293.472656 180.003906 293.957031 178.464844 C 294.441406 176.925781 294.808594 175.363281 295.0625 173.769531 C 295.3125 172.179688 295.445312 170.578125 295.460938 168.964844 C 295.476562 167.355469 295.371094 165.75 295.148438 164.152344 C 294.921875 162.558594 294.582031 160.988281 294.125 159.441406 C 293.667969 157.894531 293.101562 156.390625 292.421875 154.929688 C 291.742188 153.46875 290.957031 152.066406 290.070312 150.722656 C 289.179688 149.378906 288.199219 148.105469 287.121094 146.90625 C 286.042969 145.710938 284.882812 144.597656 283.640625 143.570312 C 282.398438 142.542969 281.089844 141.617188 279.707031 140.785156 C 278.328125 139.953125 276.894531 139.230469 275.40625 138.609375 C 273.917969 137.992188 272.394531 137.488281 270.832031 137.097656 C 271.949219 137.9375 273.019531 138.828125 274.050781 139.773438 C 275.078125 140.722656 276.058594 141.714844 276.992188 142.757812 C 277.921875 143.800781 278.800781 144.886719 279.625 146.015625 C 280.449219 147.144531 281.214844 148.308594 281.925781 149.515625 C 282.636719 150.71875 283.285156 151.953125 283.871094 153.222656 C 284.460938 154.492188 284.984375 155.785156 285.445312 157.105469 C 285.90625 158.425781 286.300781 159.765625 286.628906 161.125 C 286.957031 162.484375 287.21875 163.855469 287.414062 165.238281 C 287.609375 166.625 287.734375 168.015625 287.792969 169.410156 C 287.847656 170.808594 287.835938 172.203125 287.757812 173.601562 C 287.675781 174.996094 287.527344 176.386719 287.3125 177.765625 C 287.09375 179.148438 286.8125 180.515625 286.460938 181.867188 C 286.109375 183.222656 285.691406 184.554688 285.210938 185.867188 C 284.726562 187.179688 284.183594 188.464844 283.574219 189.722656 C 282.964844 190.980469 282.296875 192.207031 281.566406 193.398438 C 280.835938 194.59375 280.050781 195.746094 279.207031 196.859375 "/>
<path style=" stroke:none;fill-rule:nonzero;fill:rgb(85.488892%,0%,0%);fill-opacity:1;" d="M 252.875 211.289062 L 250.746094 168.675781 L 252.875 135.125 C 254.1875 136.964844 255.863281 138.371094 257.902344 139.347656 L 257.902344 164.398438 L 256.1875 206.726562 Z M 252.875 211.289062 "/>
<path style=" stroke:none;fill-rule:nonzero;fill:rgb(85.488892%,0%,0%);fill-opacity:1;" d="M 252.023438 132.453125 L 252.875 133.253906 C 253.089844 133.558594 253.328125 133.84375 253.597656 134.105469 C 253.863281 134.367188 254.148438 134.601562 254.460938 134.8125 C 254.769531 135.019531 255.09375 135.199219 255.4375 135.347656 C 255.777344 135.5 256.132812 135.617188 256.496094 135.703125 C 256.859375 135.789062 257.226562 135.839844 257.601562 135.859375 C 257.972656 135.875 258.34375 135.859375 258.714844 135.8125 C 259.085938 135.761719 259.445312 135.679688 259.800781 135.5625 C 260.15625 135.449219 260.5 135.300781 260.828125 135.125 C 261.15625 134.945312 261.464844 134.738281 261.757812 134.503906 C 262.046875 134.269531 262.3125 134.011719 262.558594 133.730469 C 262.800781 133.445312 263.015625 133.144531 263.207031 132.820312 C 263.394531 132.496094 263.550781 132.160156 263.679688 131.808594 C 263.804688 131.457031 263.902344 131.097656 263.960938 130.730469 C 264.023438 130.363281 264.050781 129.992188 264.046875 129.617188 C 264.039062 129.242188 264 128.875 263.925781 128.507812 C 263.855469 128.140625 263.746094 127.785156 263.609375 127.4375 C 263.5 128.019531 263.304688 128.574219 263.027344 129.097656 C 262.746094 129.621094 262.394531 130.089844 261.972656 130.503906 C 261.550781 130.921875 261.074219 131.261719 260.546875 131.535156 C 260.019531 131.804688 259.464844 131.988281 258.878906 132.089844 C 258.296875 132.1875 257.710938 132.199219 257.121094 132.121094 C 256.535156 132.039062 255.972656 131.875 255.433594 131.621094 C 254.898438 131.371094 254.410156 131.042969 253.976562 130.644531 C 253.539062 130.242188 253.171875 129.785156 252.875 129.273438 "/>
<path style=" stroke:none;fill-rule:nonzero;fill:rgb(85.488892%,0%,0%);fill-opacity:1;" d="M 276.21875 204.316406 C 275.160156 204.660156 274.09375 204.957031 273.007812 205.210938 C 271.925781 205.460938 270.835938 205.667969 269.734375 205.824219 C 268.636719 205.984375 267.53125 206.09375 266.421875 206.15625 C 265.3125 206.21875 264.199219 206.234375 263.089844 206.203125 C 261.980469 206.171875 260.871094 206.089844 259.765625 205.964844 C 258.664062 205.835938 257.566406 205.660156 256.476562 205.441406 C 255.386719 205.21875 254.308594 204.949219 253.242188 204.636719 C 252.179688 204.324219 251.128906 203.964844 250.089844 203.558594 C 249.054688 203.15625 248.039062 202.707031 247.042969 202.214844 C 246.046875 201.722656 245.070312 201.191406 244.121094 200.613281 C 243.167969 200.039062 242.246094 199.425781 241.347656 198.769531 C 240.449219 198.113281 239.578125 197.421875 238.742188 196.691406 C 237.902344 195.964844 237.09375 195.199219 236.320312 194.402344 C 235.546875 193.601562 234.808594 192.773438 234.109375 191.910156 C 233.40625 191.046875 232.742188 190.15625 232.117188 189.238281 C 231.492188 188.320312 230.90625 187.375 230.359375 186.40625 C 229.816406 185.4375 229.3125 184.445312 228.851562 183.433594 C 228.394531 182.421875 227.976562 181.390625 227.605469 180.34375 C 227.234375 179.292969 226.910156 178.230469 226.628906 177.15625 C 226.347656 176.078125 226.113281 174.992188 225.925781 173.898438 C 225.738281 172.800781 225.601562 171.699219 225.507812 170.589844 C 225.414062 169.480469 225.371094 168.371094 225.371094 167.261719 C 225.375 166.148438 225.425781 165.039062 225.523438 163.929688 C 225.621094 162.824219 225.765625 161.722656 225.960938 160.625 C 226.152344 159.53125 226.390625 158.445312 226.675781 157.371094 C 226.960938 156.296875 227.292969 155.234375 227.667969 154.1875 C 228.046875 153.140625 228.464844 152.113281 228.929688 151.101562 C 229.394531 150.09375 229.902344 149.105469 230.453125 148.136719 C 231 147.171875 231.589844 146.230469 232.222656 145.3125 C 232.851562 144.398438 233.519531 143.511719 234.226562 142.652344 C 234.933594 141.792969 235.675781 140.964844 236.453125 140.171875 C 237.230469 139.375 238.039062 138.617188 238.882812 137.890625 C 237.78125 139.523438 236.796875 141.222656 235.929688 142.988281 C 235.0625 144.753906 234.324219 146.574219 233.710938 148.441406 C 233.09375 150.3125 232.613281 152.214844 232.261719 154.152344 C 231.910156 156.089844 231.695312 158.039062 231.613281 160.007812 C 231.535156 161.972656 231.589844 163.933594 231.78125 165.894531 C 231.972656 167.851562 232.296875 169.789062 232.757812 171.703125 C 233.214844 173.617188 233.804688 175.488281 234.523438 177.320312 C 235.242188 179.152344 236.082031 180.925781 237.046875 182.640625 C 238.011719 184.359375 239.089844 186 240.28125 187.5625 C 241.472656 189.128906 242.765625 190.605469 244.160156 191.992188 C 245.558594 193.378906 247.042969 194.664062 248.617188 195.84375 C 250.1875 197.023438 251.835938 198.09375 253.558594 199.042969 C 255.277344 199.996094 257.058594 200.824219 258.894531 201.53125 C 260.730469 202.238281 262.605469 202.8125 264.523438 203.257812 C 266.4375 203.703125 268.375 204.015625 270.332031 204.195312 C 272.292969 204.371094 274.253906 204.410156 276.21875 204.316406 "/>
<path style=" stroke:none;fill-rule:nonzero;fill:rgb(85.488892%,0%,0%);fill-opacity:1;" d="M 226.539062 196.859375 C 225.144531 196.054688 223.816406 195.148438 222.558594 194.144531 C 221.296875 193.140625 220.117188 192.050781 219.019531 190.871094 C 217.921875 189.691406 216.914062 188.4375 216.003906 187.109375 C 215.089844 185.78125 214.28125 184.390625 213.578125 182.945312 C 212.871094 181.496094 212.273438 180.003906 211.789062 178.464844 C 211.304688 176.925781 210.9375 175.363281 210.6875 173.769531 C 210.433594 172.179688 210.300781 170.578125 210.285156 168.964844 C 210.273438 167.355469 210.375 165.75 210.601562 164.152344 C 210.824219 162.558594 211.164062 160.988281 211.621094 159.441406 C 212.078125 157.894531 212.648438 156.390625 213.328125 154.929688 C 214.007812 153.46875 214.789062 152.066406 215.679688 150.722656 C 216.566406 149.378906 217.550781 148.105469 218.628906 146.90625 C 219.703125 145.710938 220.863281 144.597656 222.105469 143.570312 C 223.347656 142.542969 224.660156 141.617188 226.039062 140.785156 C 227.417969 139.953125 228.851562 139.230469 230.339844 138.609375 C 231.828125 137.992188 233.355469 137.488281 234.917969 137.097656 C 233.800781 137.9375 232.726562 138.828125 231.699219 139.773438 C 230.667969 140.722656 229.6875 141.714844 228.757812 142.757812 C 227.824219 143.800781 226.949219 144.886719 226.125 146.015625 C 225.300781 147.144531 224.53125 148.308594 223.824219 149.515625 C 223.113281 150.71875 222.464844 151.953125 221.875 153.222656 C 221.289062 154.492188 220.761719 155.785156 220.300781 157.105469 C 219.839844 158.425781 219.445312 159.765625 219.117188 161.125 C 218.789062 162.484375 218.527344 163.855469 218.332031 165.238281 C 218.140625 166.625 218.011719 168.015625 217.957031 169.410156 C 217.898438 170.808594 217.910156 172.203125 217.992188 173.601562 C 218.070312 174.996094 218.21875 176.386719 218.4375 177.765625 C 218.652344 179.148438 218.9375 180.515625 219.289062 181.867188 C 219.636719 183.222656 220.054688 184.554688 220.539062 185.867188 C 221.019531 187.179688 221.566406 188.464844 222.175781 189.722656 C 222.78125 190.980469 223.453125 192.207031 224.179688 193.398438 C 224.910156 194.59375 225.695312 195.746094 226.539062 196.859375 "/>
<path style=" stroke:none;fill-rule:nonzero;fill:rgb(85.488892%,0%,0%);fill-opacity:1;" d="M 252.875 211.289062 L 255.003906 168.675781 L 252.875 135.125 C 251.558594 136.964844 249.882812 138.371094 247.847656 139.347656 L 247.847656 164.398438 L 249.558594 206.726562 Z M 252.875 211.289062 "/>
<path style=" stroke:none;fill-rule:nonzero;fill:rgb(85.488892%,0%,0%);fill-opacity:1;" d="M 253.726562 132.453125 L 252.875 133.253906 C 252.660156 133.558594 252.417969 133.84375 252.152344 134.105469 C 251.886719 134.367188 251.597656 134.601562 251.289062 134.8125 C 250.980469 135.019531 250.652344 135.199219 250.3125 135.347656 C 249.96875 135.5 249.617188 135.617188 249.253906 135.703125 C 248.890625 135.789062 248.519531 135.839844 248.148438 135.859375 C 247.773438 135.875 247.402344 135.859375 247.035156 135.8125 C 246.664062 135.761719 246.300781 135.679688 245.945312 135.5625 C 245.589844 135.449219 245.25 135.300781 244.921875 135.125 C 244.59375 134.945312 244.28125 134.738281 243.992188 134.503906 C 243.699219 134.269531 243.433594 134.011719 243.191406 133.730469 C 242.945312 133.445312 242.730469 133.144531 242.542969 132.820312 C 242.351562 132.496094 242.195312 132.160156 242.066406 131.808594 C 241.941406 131.457031 241.847656 131.097656 241.785156 130.730469 C 241.722656 130.363281 241.695312 129.992188 241.703125 129.617188 C 241.707031 129.242188 241.746094 128.875 241.820312 128.507812 C 241.894531 128.140625 242 127.785156 242.136719 127.4375 C 242.25 128.019531 242.441406 128.574219 242.722656 129.097656 C 243 129.621094 243.351562 130.089844 243.773438 130.503906 C 244.199219 130.921875 244.671875 131.261719 245.199219 131.535156 C 245.726562 131.804688 246.285156 131.988281 246.867188 132.089844 C 247.453125 132.1875 248.039062 132.199219 248.625 132.121094 C 249.214844 132.039062 249.777344 131.875 250.3125 131.621094 C 250.847656 131.371094 251.335938 131.042969 251.773438 130.644531 C 252.210938 130.242188 252.578125 129.785156 252.875 129.273438 "/>
</g>
</svg>
