<?xml version="1.0" encoding="UTF-8"?>
<svg xmlns="http://www.w3.org/2000/svg" xmlns:xlink="http://www.w3.org/1999/xlink" width="506.25pt" height="337.499995pt" viewBox="0 0 506.25 337.499995" version="1.2">
<defs>
<clipPath id="clip1">
  <path d="M 0 0 L 505.5 0 L 505.5 337 L 0 337 Z M 0 0 "/>
</clipPath>
<clipPath id="clip2">
  <path d="M 0 143 L 289 143 L 289 337 L 0 337 Z M 0 143 "/>
</clipPath>
<clipPath id="clip3">
  <path d="M 0 0 L 505.5 0 L 505.5 337 L 0 337 Z M 0 0 "/>
</clipPath>
<clipPath id="clip4">
  <path d="M 216 0 L 505.5 0 L 505.5 194 L 216 194 Z M 216 0 "/>
</clipPath>
</defs>
<g id="surface1">
<g clip-path="url(#clip1)" clip-rule="nonzero">
<path style=" stroke:none;fill-rule:nonzero;fill:rgb(100%,100%,100%);fill-opacity:1;" d="M 0 0 L 505.5 0 L 505.5 337 L 0 337 Z M 0 0 "/>
<path style=" stroke:none;fill-rule:nonzero;fill:rgb(100%,100%,100%);fill-opacity:1;" d="M 0 0 L 505.5 0 L 505.5 337 L 0 337 Z M 0 0 "/>
<rect x="0" y="0" width="506.25" height="337.499995" style="fill:rgb(0.389099%,33.329773%,64.709473%);fill-opacity:1;stroke:none;"/>
</g>
<g clip-path="url(#clip2)" clip-rule="nonzero">
<path style=" stroke:none;fill-rule:nonzero;fill:rgb(100%,100%,100%);fill-opacity:1;" d="M -2.390625 143.445312 L -2.390625 244.496094 L 143.242188 345.550781 L 288.871094 345.550781 Z M -2.390625 143.445312 "/>
</g>
<g clip-path="url(#clip3)" clip-rule="nonzero">
<path style=" stroke:none;fill-rule:nonzero;fill:rgb(100%,100%,100%);fill-opacity:1;" d="M 70.425781 -8.136719 L -2.390625 -8.136719 L -2.390625 42.390625 L 434.503906 345.550781 L 507.320312 345.550781 L 507.320312 295.023438 Z M 70.425781 -8.136719 "/>
</g>
<g clip-path="url(#clip4)" clip-rule="nonzero">
<path style=" stroke:none;fill-rule:nonzero;fill:rgb(100%,100%,100%);fill-opacity:1;" d="M 216.058594 -8.136719 L 361.6875 -8.136719 L 507.320312 92.917969 L 507.320312 193.96875 Z M 216.058594 -8.136719 "/>
</g>
<path style=" stroke:none;fill-rule:nonzero;fill:rgb(93.328857%,24.308777%,20.388794%);fill-opacity:1;" d="M 234.769531 194.324219 C 233.84375 193.480469 232.957031 192.59375 232.109375 191.667969 C 231.261719 190.742188 230.457031 189.78125 229.695312 188.78125 C 228.9375 187.78125 228.222656 186.753906 227.554688 185.691406 C 226.882812 184.628906 226.265625 183.535156 225.695312 182.417969 C 225.125 181.300781 224.605469 180.15625 224.136719 178.992188 C 223.667969 177.828125 223.253906 176.644531 222.890625 175.441406 C 222.527344 174.238281 222.222656 173.019531 221.96875 171.789062 C 221.714844 170.558594 221.519531 169.320312 221.375 168.074219 C 221.234375 166.824219 221.148438 165.574219 221.121094 164.316406 C 221.089844 163.0625 221.117188 161.804688 221.199219 160.550781 C 221.285156 159.300781 221.421875 158.050781 221.617188 156.8125 C 221.8125 155.570312 222.0625 154.339844 222.367188 153.121094 C 222.675781 151.902344 223.035156 150.703125 223.445312 149.515625 C 223.859375 148.328125 224.324219 147.164062 224.84375 146.019531 C 225.359375 144.875 225.929688 143.757812 226.546875 142.664062 C 227.164062 141.570312 227.832031 140.507812 228.542969 139.476562 C 229.125 138.636719 229.753906 137.839844 230.4375 137.082031 C 231.117188 136.324219 231.84375 135.621094 232.609375 134.964844 C 233.378906 134.308594 234.179688 133.707031 235.019531 133.167969 C 235.855469 132.625 236.722656 132.144531 237.609375 131.730469 C 238.5 131.316406 239.40625 130.964844 240.328125 130.6875 C 241.25 130.40625 242.179688 130.195312 243.113281 130.054688 C 244.050781 129.917969 244.980469 129.847656 245.90625 129.851562 C 246.835938 129.859375 247.746094 129.933594 248.648438 130.082031 C 249.546875 130.230469 250.421875 130.449219 251.273438 130.742188 C 252.125 131.03125 252.945312 131.386719 253.734375 131.8125 C 254.519531 132.234375 255.265625 132.722656 255.96875 133.269531 C 256.671875 133.820312 257.328125 134.425781 257.933594 135.089844 C 258.539062 135.753906 259.089844 136.464844 259.585938 137.226562 C 260.078125 137.988281 260.511719 138.792969 260.886719 139.636719 C 261.257812 140.480469 261.566406 141.359375 261.8125 142.265625 C 262.054688 143.175781 262.230469 144.105469 262.339844 145.0625 C 262.648438 147.804688 261.105469 151.632812 257.707031 156.554688 C 257.511719 156.839844 257.378906 157.148438 257.304688 157.484375 C 257.234375 157.820312 257.226562 158.160156 257.289062 158.496094 C 257.351562 158.835938 257.472656 159.148438 257.660156 159.441406 C 257.847656 159.730469 258.082031 159.972656 258.363281 160.167969 C 258.644531 160.363281 258.953125 160.496094 259.289062 160.570312 C 259.625 160.644531 259.964844 160.648438 260.300781 160.585938 C 260.640625 160.527344 260.953125 160.402344 261.242188 160.214844 C 261.53125 160.027344 261.773438 159.792969 261.96875 159.511719 C 265.367188 154.589844 268.402344 151.792969 271.070312 151.121094 C 272 150.886719 272.929688 150.722656 273.867188 150.632812 C 274.800781 150.539062 275.726562 150.519531 276.648438 150.574219 C 277.566406 150.625 278.472656 150.75 279.355469 150.945312 C 280.242188 151.144531 281.101562 151.40625 281.933594 151.742188 C 282.765625 152.078125 283.5625 152.480469 284.324219 152.945312 C 285.085938 153.414062 285.800781 153.941406 286.472656 154.53125 C 287.148438 155.117188 287.769531 155.761719 288.339844 156.460938 C 288.910156 157.15625 289.421875 157.902344 289.878906 158.691406 C 290.332031 159.484375 290.726562 160.3125 291.058594 161.183594 C 291.386719 162.050781 291.652344 162.949219 291.851562 163.875 C 292.050781 164.800781 292.179688 165.746094 292.242188 166.707031 C 292.304688 167.671875 292.300781 168.644531 292.222656 169.625 C 292.148438 170.605469 292.007812 171.585938 291.796875 172.5625 C 291.585938 173.539062 291.308594 174.503906 290.964844 175.457031 C 290.621094 176.40625 290.21875 177.335938 289.753906 178.242188 C 289.285156 179.144531 288.761719 180.019531 288.183594 180.859375 C 287.46875 181.890625 286.710938 182.890625 285.90625 183.855469 C 285.105469 184.820312 284.261719 185.746094 283.375 186.632812 C 282.488281 187.523438 281.5625 188.371094 280.601562 189.175781 C 279.640625 189.980469 278.644531 190.742188 277.613281 191.457031 C 276.582031 192.171875 275.523438 192.839844 274.433594 193.457031 C 273.34375 194.078125 272.226562 194.648438 271.085938 195.167969 C 269.945312 195.6875 268.78125 196.152344 267.597656 196.566406 C 266.414062 196.980469 265.214844 197.34375 264 197.648438 C 262.785156 197.957031 261.558594 198.207031 260.320312 198.402344 C 259.082031 198.597656 257.835938 198.738281 256.585938 198.824219 C 255.335938 198.90625 254.085938 198.933594 252.832031 198.90625 C 251.578125 198.875 250.328125 198.789062 249.085938 198.648438 C 247.839844 198.507812 246.601562 198.308594 245.375 198.054688 C 244.148438 197.804688 242.933594 197.496094 241.734375 197.132812 C 240.53125 196.769531 239.351562 196.355469 238.1875 195.886719 C 237.027344 195.417969 235.886719 194.898438 234.769531 194.324219 Z M 234.769531 194.324219 "/>
<path style=" stroke:none;fill-rule:nonzero;fill:rgb(93.328857%,24.308777%,20.388794%);fill-opacity:1;" d="M 30.886719 254.957031 C 29.960938 254.109375 29.070312 253.226562 28.226562 252.300781 C 27.378906 251.375 26.574219 250.410156 25.8125 249.414062 C 25.050781 248.414062 24.335938 247.382812 23.667969 246.320312 C 23 245.257812 22.378906 244.167969 21.808594 243.050781 C 21.238281 241.933594 20.71875 240.789062 20.25 239.625 C 19.785156 238.460938 19.367188 237.273438 19.007812 236.074219 C 18.644531 234.871094 18.335938 233.652344 18.082031 232.421875 C 17.832031 231.191406 17.632812 229.953125 17.492188 228.703125 C 17.351562 227.457031 17.265625 226.203125 17.234375 224.949219 C 17.207031 223.691406 17.234375 222.4375 17.316406 221.183594 C 17.398438 219.929688 17.539062 218.683594 17.734375 217.441406 C 17.929688 216.203125 18.179688 214.972656 18.484375 213.753906 C 18.789062 212.535156 19.148438 211.332031 19.5625 210.148438 C 19.976562 208.960938 20.441406 207.796875 20.957031 206.652344 C 21.476562 205.507812 22.042969 204.390625 22.664062 203.296875 C 23.28125 202.203125 23.945312 201.140625 24.660156 200.109375 C 25.238281 199.269531 25.871094 198.46875 26.550781 197.714844 C 27.234375 196.957031 27.957031 196.25 28.726562 195.597656 C 29.492188 194.941406 30.296875 194.339844 31.136719 193.800781 C 31.972656 193.257812 32.835938 192.777344 33.726562 192.363281 C 34.617188 191.945312 35.523438 191.597656 36.445312 191.316406 C 37.367188 191.039062 38.296875 190.828125 39.230469 190.6875 C 40.164062 190.546875 41.09375 190.480469 42.023438 190.484375 C 42.949219 190.488281 43.863281 190.566406 44.761719 190.714844 C 45.664062 190.863281 46.539062 191.082031 47.390625 191.371094 C 48.242188 191.660156 49.0625 192.019531 49.847656 192.441406 C 50.636719 192.867188 51.378906 193.351562 52.085938 193.902344 C 52.789062 194.453125 53.441406 195.058594 54.046875 195.722656 C 54.65625 196.382812 55.207031 197.097656 55.699219 197.859375 C 56.195312 198.621094 56.628906 199.425781 57.003906 200.269531 C 57.375 201.113281 57.683594 201.988281 57.925781 202.898438 C 58.171875 203.808594 58.347656 204.738281 58.453125 205.691406 C 58.765625 208.433594 57.222656 212.265625 53.824219 217.1875 C 53.628906 217.46875 53.492188 217.78125 53.421875 218.117188 C 53.347656 218.453125 53.34375 218.789062 53.40625 219.128906 C 53.464844 219.46875 53.589844 219.78125 53.777344 220.070312 C 53.960938 220.359375 54.195312 220.605469 54.480469 220.800781 C 54.761719 220.996094 55.070312 221.128906 55.40625 221.203125 C 55.742188 221.277344 56.078125 221.28125 56.417969 221.21875 C 56.753906 221.15625 57.066406 221.035156 57.355469 220.847656 C 57.644531 220.660156 57.886719 220.425781 58.082031 220.144531 C 61.480469 215.222656 64.515625 212.425781 67.1875 211.753906 C 68.117188 211.519531 69.046875 211.355469 69.980469 211.265625 C 70.917969 211.171875 71.84375 211.152344 72.761719 211.207031 C 73.683594 211.257812 74.585938 211.382812 75.472656 211.578125 C 76.359375 211.773438 77.21875 212.039062 78.050781 212.375 C 78.882812 212.710938 79.679688 213.113281 80.441406 213.578125 C 81.199219 214.046875 81.917969 214.574219 82.589844 215.160156 C 83.261719 215.75 83.882812 216.394531 84.453125 217.089844 C 85.023438 217.789062 85.539062 218.535156 85.992188 219.324219 C 86.449219 220.117188 86.84375 220.945312 87.171875 221.8125 C 87.503906 222.683594 87.769531 223.578125 87.964844 224.503906 C 88.164062 225.429688 88.296875 226.375 88.359375 227.339844 C 88.421875 228.304688 88.414062 229.277344 88.339844 230.257812 C 88.265625 231.238281 88.121094 232.21875 87.910156 233.195312 C 87.699219 234.171875 87.421875 235.136719 87.082031 236.085938 C 86.738281 237.039062 86.335938 237.96875 85.867188 238.871094 C 85.402344 239.777344 84.878906 240.652344 84.296875 241.492188 C 83.585938 242.523438 82.828125 243.523438 82.023438 244.488281 C 81.21875 245.453125 80.375 246.378906 79.488281 247.265625 C 78.601562 248.15625 77.679688 249 76.71875 249.808594 C 75.753906 250.613281 74.757812 251.371094 73.730469 252.085938 C 72.699219 252.804688 71.636719 253.472656 70.546875 254.089844 C 69.457031 254.710938 68.34375 255.28125 67.199219 255.800781 C 66.058594 256.320312 64.898438 256.785156 63.714844 257.199219 C 62.53125 257.613281 61.332031 257.976562 60.117188 258.28125 C 58.898438 258.585938 57.671875 258.839844 56.4375 259.035156 C 55.199219 259.230469 53.953125 259.371094 52.703125 259.453125 C 51.453125 259.539062 50.199219 259.566406 48.945312 259.535156 C 47.695312 259.507812 46.445312 259.421875 45.199219 259.28125 C 43.953125 259.140625 42.71875 258.941406 41.488281 258.6875 C 40.261719 258.433594 39.046875 258.128906 37.847656 257.765625 C 36.648438 257.402344 35.46875 256.988281 34.304688 256.519531 C 33.140625 256.050781 32 255.527344 30.886719 254.957031 Z M 30.886719 254.957031 "/>
<path style=" stroke:none;fill-rule:nonzero;fill:rgb(93.328857%,24.308777%,20.388794%);fill-opacity:1;" d="M 438.65625 133.691406 C 437.726562 132.847656 436.839844 131.960938 435.992188 131.035156 C 435.148438 130.109375 434.34375 129.148438 433.582031 128.148438 C 432.820312 127.152344 432.105469 126.121094 431.4375 125.058594 C 430.769531 123.996094 430.148438 122.90625 429.578125 121.785156 C 429.007812 120.667969 428.488281 119.527344 428.019531 118.359375 C 427.550781 117.195312 427.136719 116.011719 426.773438 114.808594 C 426.414062 113.605469 426.105469 112.390625 425.851562 111.160156 C 425.601562 109.929688 425.402344 108.6875 425.261719 107.441406 C 425.121094 106.191406 425.035156 104.941406 425.003906 103.683594 C 424.976562 102.429688 425 101.175781 425.085938 99.921875 C 425.167969 98.667969 425.308594 97.417969 425.503906 96.179688 C 425.699219 94.9375 425.949219 93.707031 426.253906 92.488281 C 426.558594 91.269531 426.917969 90.070312 427.332031 88.882812 C 427.746094 87.695312 428.210938 86.53125 428.726562 85.386719 C 429.246094 84.242188 429.8125 83.125 430.429688 82.03125 C 431.050781 80.941406 431.714844 79.878906 432.429688 78.84375 C 433.007812 78.003906 433.640625 77.207031 434.320312 76.449219 C 435.003906 75.695312 435.726562 74.988281 436.496094 74.332031 C 437.261719 73.675781 438.066406 73.078125 438.902344 72.535156 C 439.742188 71.992188 440.605469 71.515625 441.496094 71.097656 C 442.386719 70.683594 443.289062 70.335938 444.214844 70.054688 C 445.136719 69.773438 446.0625 69.5625 447 69.421875 C 447.933594 69.285156 448.863281 69.214844 449.792969 69.222656 C 450.71875 69.226562 451.632812 69.300781 452.53125 69.449219 C 453.429688 69.601562 454.308594 69.820312 455.160156 70.109375 C 456.011719 70.398438 456.832031 70.753906 457.617188 71.179688 C 458.402344 71.601562 459.148438 72.089844 459.851562 72.636719 C 460.558594 73.1875 461.210938 73.792969 461.816406 74.457031 C 462.421875 75.121094 462.972656 75.832031 463.46875 76.59375 C 463.964844 77.355469 464.398438 78.160156 464.769531 79.003906 C 465.144531 79.847656 465.453125 80.726562 465.695312 81.636719 C 465.9375 82.542969 466.113281 83.476562 466.222656 84.429688 C 466.535156 87.171875 464.992188 91.003906 461.59375 95.921875 C 461.398438 96.207031 461.261719 96.515625 461.191406 96.851562 C 461.117188 97.1875 461.113281 97.527344 461.171875 97.863281 C 461.234375 98.203125 461.359375 98.519531 461.542969 98.808594 C 461.730469 99.097656 461.964844 99.339844 462.246094 99.535156 C 462.53125 99.730469 462.839844 99.867188 463.175781 99.9375 C 463.511719 100.011719 463.847656 100.015625 464.1875 99.957031 C 464.523438 99.894531 464.835938 99.769531 465.125 99.582031 C 465.414062 99.398438 465.65625 99.160156 465.851562 98.878906 C 469.25 93.957031 472.285156 91.160156 474.957031 90.488281 C 475.882812 90.253906 476.816406 90.089844 477.75 90 C 478.683594 89.90625 479.613281 89.886719 480.53125 89.941406 C 481.453125 89.992188 482.355469 90.117188 483.242188 90.316406 C 484.128906 90.511719 484.988281 90.777344 485.820312 91.109375 C 486.652344 91.445312 487.449219 91.847656 488.207031 92.3125 C 488.96875 92.78125 489.6875 93.308594 490.359375 93.898438 C 491.03125 94.488281 491.652344 95.128906 492.222656 95.828125 C 492.792969 96.523438 493.308594 97.269531 493.761719 98.0625 C 494.21875 98.851562 494.609375 99.683594 494.941406 100.550781 C 495.273438 101.417969 495.535156 102.316406 495.734375 103.242188 C 495.933594 104.167969 496.066406 105.113281 496.128906 106.078125 C 496.191406 107.039062 496.183594 108.011719 496.109375 108.992188 C 496.035156 109.976562 495.890625 110.953125 495.679688 111.929688 C 495.46875 112.90625 495.191406 113.871094 494.851562 114.824219 C 494.507812 115.773438 494.101562 116.703125 493.636719 117.609375 C 493.171875 118.515625 492.648438 119.386719 492.066406 120.226562 C 491.355469 121.261719 490.59375 122.257812 489.792969 123.222656 C 488.988281 124.1875 488.144531 125.113281 487.257812 126.003906 C 486.371094 126.890625 485.449219 127.738281 484.484375 128.542969 C 483.523438 129.347656 482.527344 130.109375 481.496094 130.824219 C 480.46875 131.539062 479.40625 132.207031 478.316406 132.828125 C 477.226562 133.445312 476.109375 134.015625 474.96875 134.535156 C 473.828125 135.054688 472.667969 135.519531 471.484375 135.9375 C 470.300781 136.351562 469.101562 136.710938 467.886719 137.015625 C 466.667969 137.324219 465.441406 137.574219 464.203125 137.769531 C 462.964844 137.964844 461.722656 138.105469 460.472656 138.191406 C 459.222656 138.273438 457.96875 138.300781 456.714844 138.273438 C 455.464844 138.242188 454.214844 138.15625 452.96875 138.015625 C 451.722656 137.875 450.488281 137.675781 449.257812 137.425781 C 448.03125 137.171875 446.816406 136.863281 445.617188 136.5 C 444.417969 136.136719 443.234375 135.722656 442.074219 135.253906 C 440.910156 134.785156 439.769531 134.265625 438.65625 133.691406 Z M 438.65625 133.691406 "/>
<path style=" stroke:none;fill-rule:nonzero;fill:rgb(93.328857%,24.308777%,20.388794%);fill-opacity:1;" d="M 98.847656 100.007812 C 97.921875 99.164062 97.035156 98.277344 96.1875 97.351562 C 95.339844 96.425781 94.535156 95.464844 93.773438 94.464844 C 93.011719 93.464844 92.296875 92.4375 91.628906 91.375 C 90.960938 90.3125 90.339844 89.21875 89.769531 88.101562 C 89.199219 86.984375 88.679688 85.839844 88.210938 84.675781 C 87.746094 83.511719 87.328125 82.328125 86.96875 81.125 C 86.605469 79.921875 86.296875 78.703125 86.046875 77.472656 C 85.792969 76.242188 85.59375 75.003906 85.453125 73.757812 C 85.3125 72.507812 85.226562 71.257812 85.195312 70 C 85.167969 68.746094 85.195312 67.488281 85.277344 66.234375 C 85.359375 64.984375 85.5 63.734375 85.695312 62.496094 C 85.890625 61.253906 86.140625 60.023438 86.445312 58.804688 C 86.75 57.585938 87.109375 56.386719 87.523438 55.199219 C 87.9375 54.011719 88.402344 52.847656 88.917969 51.703125 C 89.4375 50.558594 90.003906 49.441406 90.625 48.347656 C 91.242188 47.253906 91.90625 46.191406 92.621094 45.160156 C 93.199219 44.320312 93.832031 43.523438 94.511719 42.765625 C 95.195312 42.007812 95.917969 41.304688 96.6875 40.648438 C 97.457031 39.992188 98.257812 39.390625 99.097656 38.851562 C 99.933594 38.308594 100.796875 37.828125 101.6875 37.414062 C 102.578125 37 103.484375 36.648438 104.40625 36.371094 C 105.328125 36.089844 106.257812 35.878906 107.191406 35.738281 C 108.125 35.601562 109.058594 35.53125 109.984375 35.535156 C 110.910156 35.542969 111.824219 35.617188 112.722656 35.765625 C 113.625 35.914062 114.5 36.132812 115.351562 36.421875 C 116.203125 36.714844 117.023438 37.070312 117.808594 37.492188 C 118.597656 37.917969 119.339844 38.40625 120.046875 38.953125 C 120.75 39.503906 121.402344 40.109375 122.011719 40.773438 C 122.617188 41.433594 123.167969 42.148438 123.660156 42.910156 C 124.15625 43.671875 124.589844 44.476562 124.964844 45.320312 C 125.335938 46.164062 125.644531 47.042969 125.886719 47.949219 C 126.132812 48.859375 126.308594 49.789062 126.414062 50.746094 C 126.726562 53.488281 125.183594 57.316406 121.785156 62.238281 C 121.589844 62.519531 121.457031 62.832031 121.382812 63.167969 C 121.308594 63.503906 121.304688 63.84375 121.367188 64.179688 C 121.425781 64.519531 121.550781 64.832031 121.738281 65.121094 C 121.921875 65.414062 122.15625 65.65625 122.441406 65.851562 C 122.722656 66.046875 123.03125 66.179688 123.367188 66.253906 C 123.703125 66.328125 124.039062 66.332031 124.378906 66.269531 C 124.714844 66.210938 125.03125 66.085938 125.316406 65.898438 C 125.605469 65.710938 125.847656 65.476562 126.042969 65.195312 C 129.441406 60.273438 132.476562 57.476562 135.148438 56.804688 C 136.078125 56.570312 137.007812 56.40625 137.941406 56.316406 C 138.878906 56.222656 139.804688 56.203125 140.726562 56.257812 C 141.644531 56.308594 142.546875 56.433594 143.433594 56.628906 C 144.320312 56.824219 145.179688 57.089844 146.011719 57.425781 C 146.84375 57.761719 147.640625 58.164062 148.402344 58.628906 C 149.160156 59.097656 149.878906 59.625 150.550781 60.214844 C 151.222656 60.800781 151.847656 61.445312 152.417969 62.144531 C 152.988281 62.839844 153.5 63.585938 153.953125 64.375 C 154.410156 65.167969 154.804688 65.996094 155.132812 66.867188 C 155.464844 67.734375 155.730469 68.628906 155.929688 69.558594 C 156.125 70.484375 156.257812 71.429688 156.320312 72.390625 C 156.382812 73.355469 156.375 74.328125 156.300781 75.308594 C 156.226562 76.289062 156.082031 77.269531 155.871094 78.246094 C 155.660156 79.222656 155.382812 80.1875 155.042969 81.140625 C 154.699219 82.089844 154.296875 83.019531 153.828125 83.925781 C 153.363281 84.828125 152.839844 85.703125 152.257812 86.542969 C 151.546875 87.574219 150.789062 88.574219 149.984375 89.539062 C 149.179688 90.503906 148.335938 91.429688 147.449219 92.316406 C 146.566406 93.207031 145.640625 94.054688 144.679688 94.859375 C 143.714844 95.664062 142.71875 96.421875 141.691406 97.140625 C 140.660156 97.855469 139.597656 98.523438 138.507812 99.140625 C 137.417969 99.761719 136.304688 100.332031 135.160156 100.851562 C 134.019531 101.371094 132.859375 101.835938 131.675781 102.25 C 130.492188 102.664062 129.292969 103.027344 128.078125 103.332031 C 126.863281 103.640625 125.636719 103.890625 124.398438 104.085938 C 123.160156 104.28125 121.914062 104.421875 120.664062 104.503906 C 119.414062 104.589844 118.160156 104.617188 116.910156 104.585938 C 115.65625 104.558594 114.40625 104.472656 113.160156 104.332031 C 111.914062 104.191406 110.679688 103.992188 109.453125 103.738281 C 108.222656 103.488281 107.007812 103.179688 105.808594 102.816406 C 104.609375 102.453125 103.429688 102.039062 102.265625 101.570312 C 101.101562 101.101562 99.964844 100.578125 98.847656 100.007812 Z M 98.847656 100.007812 "/>
<path style=" stroke:none;fill-rule:nonzero;fill:rgb(93.328857%,24.308777%,20.388794%);fill-opacity:1;" d="M 370.691406 288.640625 C 369.765625 287.796875 368.878906 286.910156 368.03125 285.984375 C 367.183594 285.058594 366.382812 284.097656 365.621094 283.097656 C 364.859375 282.101562 364.144531 281.070312 363.476562 280.007812 C 362.808594 278.945312 362.1875 277.851562 361.617188 276.734375 C 361.046875 275.617188 360.527344 274.472656 360.058594 273.308594 C 359.589844 272.144531 359.175781 270.960938 358.8125 269.757812 C 358.453125 268.554688 358.144531 267.335938 357.890625 266.105469 C 357.636719 264.875 357.441406 263.636719 357.300781 262.390625 C 357.15625 261.140625 357.074219 259.890625 357.042969 258.632812 C 357.015625 257.378906 357.039062 256.121094 357.125 254.867188 C 357.207031 253.617188 357.347656 252.367188 357.542969 251.128906 C 357.734375 249.886719 357.988281 248.65625 358.292969 247.4375 C 358.597656 246.21875 358.957031 245.019531 359.371094 243.832031 C 359.78125 242.644531 360.25 241.480469 360.765625 240.335938 C 361.285156 239.191406 361.851562 238.074219 362.46875 236.980469 C 363.089844 235.886719 363.753906 234.824219 364.46875 233.792969 C 365.046875 232.953125 365.679688 232.15625 366.359375 231.398438 C 367.039062 230.640625 367.765625 229.9375 368.535156 229.28125 C 369.300781 228.625 370.105469 228.023438 370.941406 227.484375 C 371.78125 226.941406 372.644531 226.464844 373.535156 226.046875 C 374.421875 225.632812 375.328125 225.285156 376.25 225.003906 C 377.175781 224.722656 378.101562 224.511719 379.039062 224.371094 C 379.972656 224.234375 380.902344 224.164062 381.832031 224.167969 C 382.757812 224.175781 383.671875 224.25 384.570312 224.398438 C 385.46875 224.546875 386.34375 224.765625 387.199219 225.058594 C 388.050781 225.347656 388.871094 225.703125 389.65625 226.128906 C 390.441406 226.550781 391.1875 227.039062 391.890625 227.585938 C 392.59375 228.136719 393.25 228.742188 393.855469 229.40625 C 394.460938 230.070312 395.011719 230.78125 395.507812 231.542969 C 396.003906 232.304688 396.4375 233.109375 396.808594 233.953125 C 397.183594 234.796875 397.492188 235.675781 397.734375 236.582031 C 397.976562 237.492188 398.152344 238.425781 398.261719 239.378906 C 398.574219 242.121094 397.03125 245.953125 393.632812 250.871094 C 393.433594 251.15625 393.300781 251.464844 393.230469 251.800781 C 393.15625 252.136719 393.152344 252.476562 393.210938 252.8125 C 393.273438 253.152344 393.398438 253.464844 393.582031 253.757812 C 393.769531 254.046875 394.003906 254.289062 394.285156 254.484375 C 394.570312 254.679688 394.878906 254.816406 395.214844 254.886719 C 395.550781 254.960938 395.886719 254.964844 396.222656 254.902344 C 396.5625 254.84375 396.875 254.71875 397.164062 254.53125 C 397.453125 254.34375 397.695312 254.109375 397.890625 253.828125 C 401.289062 248.90625 404.324219 246.109375 406.996094 245.4375 C 407.921875 245.203125 408.855469 245.039062 409.789062 244.949219 C 410.722656 244.855469 411.652344 244.835938 412.570312 244.890625 C 413.492188 244.941406 414.394531 245.066406 415.28125 245.261719 C 416.167969 245.460938 417.023438 245.726562 417.859375 246.058594 C 418.691406 246.394531 419.488281 246.796875 420.246094 247.261719 C 421.007812 247.730469 421.726562 248.257812 422.398438 248.847656 C 423.070312 249.433594 423.691406 250.078125 424.261719 250.777344 C 424.832031 251.472656 425.34375 252.21875 425.800781 253.007812 C 426.257812 253.800781 426.648438 254.628906 426.980469 255.5 C 427.3125 256.367188 427.574219 257.265625 427.773438 258.191406 C 427.972656 259.117188 428.105469 260.0625 428.167969 261.023438 C 428.230469 261.988281 428.222656 262.960938 428.148438 263.941406 C 428.074219 264.921875 427.929688 265.902344 427.71875 266.878906 C 427.507812 267.855469 427.230469 268.820312 426.886719 269.773438 C 426.546875 270.722656 426.140625 271.652344 425.675781 272.558594 C 425.210938 273.460938 424.6875 274.335938 424.105469 275.175781 C 423.390625 276.207031 422.632812 277.207031 421.832031 278.171875 C 421.027344 279.136719 420.183594 280.0625 419.296875 280.949219 C 418.410156 281.839844 417.488281 282.6875 416.523438 283.492188 C 415.5625 284.296875 414.566406 285.058594 413.535156 285.773438 C 412.507812 286.488281 411.445312 287.15625 410.355469 287.773438 C 409.265625 288.394531 408.148438 288.964844 407.007812 289.484375 C 405.867188 290.003906 404.703125 290.46875 403.523438 290.882812 C 402.339844 291.300781 401.140625 291.660156 399.921875 291.964844 C 398.707031 292.273438 397.480469 292.523438 396.242188 292.71875 C 395.003906 292.914062 393.761719 293.054688 392.511719 293.140625 C 391.257812 293.222656 390.007812 293.25 388.753906 293.222656 C 387.5 293.191406 386.253906 293.105469 385.007812 292.964844 C 383.761719 292.824219 382.523438 292.625 381.296875 292.371094 C 380.070312 292.121094 378.855469 291.8125 377.65625 291.449219 C 376.457031 291.085938 375.273438 290.671875 374.113281 290.203125 C 372.949219 289.734375 371.808594 289.214844 370.691406 288.640625 Z M 370.691406 288.640625 "/>
<path style=" stroke:none;fill-rule:nonzero;fill:rgb(93.328857%,24.308777%,20.388794%);fill-opacity:1;" d="M 350.332031 72.40625 C 349.40625 71.558594 348.519531 70.675781 347.671875 69.75 C 346.824219 68.824219 346.019531 67.859375 345.257812 66.863281 C 344.496094 65.863281 343.78125 64.832031 343.113281 63.769531 C 342.445312 62.707031 341.828125 61.617188 341.253906 60.5 C 340.683594 59.382812 340.164062 58.238281 339.699219 57.074219 C 339.230469 55.910156 338.8125 54.722656 338.453125 53.523438 C 338.089844 52.320312 337.78125 51.101562 337.53125 49.871094 C 337.277344 48.640625 337.078125 47.402344 336.9375 46.152344 C 336.796875 44.90625 336.710938 43.652344 336.679688 42.398438 C 336.652344 41.140625 336.679688 39.886719 336.761719 38.632812 C 336.84375 37.378906 336.984375 36.132812 337.179688 34.890625 C 337.375 33.652344 337.625 32.421875 337.929688 31.203125 C 338.234375 29.984375 338.59375 28.78125 339.007812 27.597656 C 339.421875 26.410156 339.886719 25.246094 340.40625 24.101562 C 340.921875 22.957031 341.492188 21.839844 342.109375 20.746094 C 342.726562 19.652344 343.390625 18.589844 344.105469 17.558594 C 344.6875 16.71875 345.316406 15.917969 345.996094 15.164062 C 346.679688 14.40625 347.402344 13.699219 348.171875 13.046875 C 348.941406 12.390625 349.742188 11.789062 350.582031 11.25 C 351.417969 10.707031 352.28125 10.226562 353.171875 9.8125 C 354.0625 9.394531 354.96875 9.046875 355.890625 8.765625 C 356.8125 8.488281 357.742188 8.277344 358.675781 8.136719 C 359.609375 7.996094 360.542969 7.929688 361.46875 7.933594 C 362.394531 7.9375 363.308594 8.015625 364.207031 8.164062 C 365.109375 8.3125 365.984375 8.53125 366.835938 8.820312 C 367.6875 9.109375 368.507812 9.46875 369.292969 9.890625 C 370.082031 10.316406 370.828125 10.800781 371.53125 11.351562 C 372.234375 11.902344 372.890625 12.507812 373.496094 13.171875 C 374.101562 13.832031 374.652344 14.546875 375.144531 15.308594 C 375.640625 16.070312 376.074219 16.875 376.449219 17.71875 C 376.820312 18.5625 377.128906 19.4375 377.371094 20.347656 C 377.617188 21.257812 377.792969 22.1875 377.898438 23.140625 C 378.210938 25.882812 376.667969 29.714844 373.269531 34.636719 C 373.074219 34.917969 372.941406 35.230469 372.867188 35.566406 C 372.792969 35.902344 372.789062 36.238281 372.851562 36.578125 C 372.914062 36.917969 373.035156 37.230469 373.222656 37.519531 C 373.40625 37.808594 373.640625 38.054688 373.925781 38.25 C 374.207031 38.445312 374.515625 38.578125 374.851562 38.652344 C 375.1875 38.726562 375.523438 38.730469 375.863281 38.667969 C 376.199219 38.605469 376.515625 38.484375 376.804688 38.296875 C 377.089844 38.109375 377.332031 37.875 377.53125 37.59375 C 380.929688 32.671875 383.960938 29.875 386.632812 29.203125 C 387.5625 28.96875 388.492188 28.804688 389.429688 28.714844 C 390.363281 28.621094 391.289062 28.601562 392.210938 28.65625 C 393.128906 28.707031 394.03125 28.832031 394.917969 29.027344 C 395.804688 29.222656 396.664062 29.488281 397.496094 29.824219 C 398.328125 30.160156 399.125 30.5625 399.886719 31.027344 C 400.644531 31.496094 401.363281 32.023438 402.035156 32.609375 C 402.710938 33.199219 403.332031 33.84375 403.902344 34.539062 C 404.472656 35.238281 404.984375 35.984375 405.4375 36.773438 C 405.894531 37.566406 406.289062 38.394531 406.617188 39.261719 C 406.949219 40.132812 407.214844 41.027344 407.414062 41.953125 C 407.613281 42.878906 407.742188 43.824219 407.804688 44.789062 C 407.867188 45.753906 407.859375 46.726562 407.785156 47.707031 C 407.710938 48.6875 407.566406 49.667969 407.355469 50.644531 C 407.144531 51.621094 406.871094 52.585938 406.527344 53.535156 C 406.183594 54.488281 405.78125 55.417969 405.3125 56.320312 C 404.847656 57.226562 404.324219 58.101562 403.746094 58.941406 C 403.03125 59.972656 402.273438 60.972656 401.46875 61.9375 C 400.667969 62.902344 399.820312 63.828125 398.9375 64.714844 C 398.050781 65.605469 397.125 66.449219 396.164062 67.257812 C 395.203125 68.0625 394.203125 68.820312 393.175781 69.535156 C 392.144531 70.253906 391.085938 70.921875 389.992188 71.539062 C 388.902344 72.160156 387.789062 72.730469 386.648438 73.25 C 385.503906 73.769531 384.34375 74.234375 383.160156 74.648438 C 381.976562 75.0625 380.777344 75.425781 379.5625 75.730469 C 378.347656 76.035156 377.121094 76.289062 375.882812 76.484375 C 374.644531 76.679688 373.398438 76.820312 372.148438 76.902344 C 370.898438 76.988281 369.644531 77.015625 368.394531 76.984375 C 367.140625 76.957031 365.890625 76.871094 364.644531 76.730469 C 363.398438 76.589844 362.164062 76.390625 360.9375 76.136719 C 359.707031 75.882812 358.496094 75.578125 357.292969 75.214844 C 356.09375 74.851562 354.914062 74.4375 353.75 73.96875 C 352.585938 73.5 351.449219 72.976562 350.332031 72.40625 Z M 350.332031 72.40625 "/>
<path style=" stroke:none;fill-rule:nonzero;fill:rgb(93.328857%,24.308777%,20.388794%);fill-opacity:1;" d="M 119.207031 316.242188 C 118.28125 315.398438 117.394531 314.511719 116.546875 313.585938 C 115.699219 312.660156 114.894531 311.699219 114.136719 310.699219 C 113.375 309.703125 112.660156 308.671875 111.992188 307.609375 C 111.324219 306.546875 110.703125 305.457031 110.132812 304.335938 C 109.5625 303.21875 109.042969 302.078125 108.574219 300.910156 C 108.105469 299.746094 107.691406 298.5625 107.328125 297.359375 C 106.96875 296.15625 106.660156 294.941406 106.40625 293.710938 C 106.152344 292.480469 105.957031 291.238281 105.816406 289.992188 C 105.671875 288.742188 105.585938 287.492188 105.558594 286.234375 C 105.527344 284.980469 105.554688 283.726562 105.640625 282.472656 C 105.722656 281.21875 105.863281 279.96875 106.054688 278.730469 C 106.25 277.488281 106.5 276.257812 106.808594 275.039062 C 107.113281 273.824219 107.472656 272.621094 107.886719 271.433594 C 108.296875 270.25 108.765625 269.082031 109.28125 267.9375 C 109.800781 266.796875 110.367188 265.675781 110.984375 264.582031 C 111.601562 263.492188 112.269531 262.429688 112.984375 261.394531 C 113.5625 260.554688 114.191406 259.757812 114.875 259 C 115.554688 258.246094 116.28125 257.539062 117.046875 256.882812 C 117.816406 256.226562 118.621094 255.628906 119.457031 255.085938 C 120.296875 254.542969 121.160156 254.066406 122.050781 253.648438 C 122.9375 253.234375 123.84375 252.886719 124.765625 252.605469 C 125.6875 252.324219 126.617188 252.113281 127.550781 251.972656 C 128.488281 251.835938 129.417969 251.765625 130.347656 251.773438 C 131.273438 251.777344 132.1875 251.851562 133.085938 252 C 133.984375 252.152344 134.859375 252.371094 135.714844 252.660156 C 136.566406 252.949219 137.382812 253.304688 138.171875 253.730469 C 138.957031 254.152344 139.703125 254.640625 140.40625 255.1875 C 141.109375 255.738281 141.765625 256.34375 142.371094 257.007812 C 142.976562 257.671875 143.527344 258.382812 144.023438 259.144531 C 144.519531 259.90625 144.953125 260.710938 145.324219 261.554688 C 145.699219 262.398438 146.007812 263.277344 146.25 264.1875 C 146.492188 265.09375 146.667969 266.027344 146.777344 266.980469 C 147.089844 269.722656 145.542969 273.554688 142.144531 278.472656 C 141.949219 278.757812 141.816406 279.066406 141.746094 279.402344 C 141.671875 279.738281 141.667969 280.078125 141.726562 280.414062 C 141.789062 280.753906 141.914062 281.070312 142.097656 281.359375 C 142.285156 281.648438 142.519531 281.890625 142.800781 282.085938 C 143.085938 282.28125 143.394531 282.417969 143.730469 282.488281 C 144.066406 282.5625 144.402344 282.566406 144.738281 282.507812 C 145.078125 282.445312 145.390625 282.320312 145.679688 282.132812 C 145.96875 281.949219 146.210938 281.710938 146.40625 281.429688 C 149.804688 276.507812 152.839844 273.710938 155.507812 273.039062 C 156.4375 272.804688 157.371094 272.640625 158.304688 272.550781 C 159.238281 272.457031 160.167969 272.4375 161.085938 272.492188 C 162.007812 272.542969 162.910156 272.667969 163.796875 272.867188 C 164.679688 273.0625 165.539062 273.328125 166.371094 273.660156 C 167.203125 273.996094 168 274.398438 168.761719 274.863281 C 169.523438 275.332031 170.238281 275.859375 170.914062 276.449219 C 171.585938 277.039062 172.207031 277.679688 172.777344 278.378906 C 173.347656 279.074219 173.859375 279.820312 174.316406 280.613281 C 174.773438 281.402344 175.164062 282.234375 175.496094 283.101562 C 175.824219 283.96875 176.089844 284.867188 176.289062 285.792969 C 176.488281 286.71875 176.617188 287.664062 176.679688 288.628906 C 176.742188 289.589844 176.738281 290.5625 176.664062 291.542969 C 176.585938 292.527344 176.445312 293.503906 176.234375 294.480469 C 176.023438 295.457031 175.746094 296.421875 175.402344 297.375 C 175.0625 298.324219 174.65625 299.253906 174.191406 300.160156 C 173.722656 301.066406 173.199219 301.9375 172.621094 302.777344 C 171.90625 303.8125 171.148438 304.808594 170.347656 305.773438 C 169.542969 306.738281 168.699219 307.664062 167.8125 308.554688 C 166.925781 309.441406 166.003906 310.289062 165.039062 311.09375 C 164.078125 311.898438 163.082031 312.660156 162.050781 313.375 C 161.019531 314.089844 159.960938 314.757812 158.871094 315.378906 C 157.78125 315.996094 156.664062 316.566406 155.523438 317.085938 C 154.382812 317.605469 153.21875 318.070312 152.035156 318.488281 C 150.855469 318.902344 149.652344 319.261719 148.4375 319.566406 C 147.222656 319.875 145.996094 320.125 144.757812 320.320312 C 143.519531 320.515625 142.277344 320.65625 141.027344 320.742188 C 139.773438 320.824219 138.523438 320.851562 137.269531 320.824219 C 136.015625 320.792969 134.769531 320.707031 133.523438 320.566406 C 132.277344 320.425781 131.039062 320.226562 129.8125 319.976562 C 128.585938 319.722656 127.371094 319.414062 126.171875 319.050781 C 124.972656 318.6875 123.789062 318.273438 122.625 317.804688 C 121.464844 317.335938 120.324219 316.816406 119.207031 316.242188 Z M 119.207031 316.242188 "/>
</g>
</svg>
