<?xml version="1.0" encoding="UTF-8"?>
<svg xmlns="http://www.w3.org/2000/svg" xmlns:xlink="http://www.w3.org/1999/xlink" width="506.25pt" height="337.499995pt" viewBox="0 0 506.25 337.499995" version="1.2">
<defs>
<clipPath id="clip1">
  <path d="M 0 0 L 505.5 0 L 505.5 337 L 0 337 Z M 0 0 "/>
</clipPath>
<clipPath id="clip2">
  <path d="M 0 0 L 505.5 0 L 505.5 254 L 0 254 Z M 0 0 "/>
</clipPath>
<clipPath id="clip3">
  <path d="M 0 0 L 505.5 0 L 505.5 169 L 0 169 Z M 0 0 "/>
</clipPath>
<clipPath id="clip4">
  <path d="M 0 0 L 505.5 0 L 505.5 84 L 0 84 Z M 0 0 "/>
</clipPath>
</defs>
<g id="surface1">
<g clip-path="url(#clip1)" clip-rule="nonzero">
<path style=" stroke:none;fill-rule:nonzero;fill:rgb(100%,100%,100%);fill-opacity:1;" d="M 0 0 L 505.5 0 L 505.5 337 L 0 337 Z M 0 0 "/>
<path style=" stroke:none;fill-rule:nonzero;fill:rgb(100%,100%,100%);fill-opacity:1;" d="M 0 0 L 505.5 0 L 505.5 337 L 0 337 Z M 0 0 "/>
<rect x="0" y="0" width="506.25" height="337.499995" style="fill:rgb(100%,100%,100%);fill-opacity:1;stroke:none;"/>
</g>
<g clip-path="url(#clip2)" clip-rule="nonzero">
<path style=" stroke:none;fill-rule:nonzero;fill:rgb(87.838745%,12.548828%,0%);fill-opacity:1;" d="M -12.523438 -2.03125 L 517.363281 -2.03125 L 517.363281 253.289062 L -12.523438 253.289062 Z M -12.523438 -2.03125 "/>
</g>
<g clip-path="url(#clip3)" clip-rule="nonzero">
<path style=" stroke:none;fill-rule:nonzero;fill:rgb(100%,100%,100%);fill-opacity:1;" d="M -12.523438 -2.03125 L 517.363281 -2.03125 L 517.363281 168.183594 L -12.523438 168.183594 Z M -12.523438 -2.03125 "/>
</g>
<g clip-path="url(#clip4)" clip-rule="nonzero">
<path style=" stroke:none;fill-rule:nonzero;fill:rgb(87.838745%,12.548828%,0%);fill-opacity:1;" d="M -12.523438 -2.03125 L 517.363281 -2.03125 L 517.363281 83.074219 L -12.523438 83.074219 Z M -12.523438 -2.03125 "/>
</g>
</g>
</svg>
