<?xml version="1.0" encoding="UTF-8"?>
<svg xmlns="http://www.w3.org/2000/svg" xmlns:xlink="http://www.w3.org/1999/xlink" width="506.25pt" height="337.499995pt" viewBox="0 0 506.25 337.499995" version="1.2">
<defs>
<clipPath id="clip1">
  <path d="M 0 0 L 505.5 0 L 505.5 337 L 0 337 Z M 0 0 "/>
</clipPath>
<clipPath id="clip2">
  <path d="M 0 111 L 505.5 111 L 505.5 337 L 0 337 Z M 0 111 "/>
</clipPath>
<clipPath id="clip3">
  <path d="M 0 225 L 505.5 225 L 505.5 337 L 0 337 Z M 0 225 "/>
</clipPath>
</defs>
<g id="surface1">
<g clip-path="url(#clip1)" clip-rule="nonzero">
<path style=" stroke:none;fill-rule:nonzero;fill:rgb(100%,100%,100%);fill-opacity:1;" d="M 0 0 L 505.5 0 L 505.5 337 L 0 337 Z M 0 0 "/>
<path style=" stroke:none;fill-rule:nonzero;fill:rgb(100%,100%,100%);fill-opacity:1;" d="M 0 0 L 505.5 0 L 505.5 337 L 0 337 Z M 0 0 "/>
<rect x="0" y="0" width="506.25" height="337.499995" style="fill:rgb(85.488892%,14.509583%,11.369324%);fill-opacity:1;stroke:none;"/>
</g>
<g clip-path="url(#clip2)" clip-rule="nonzero">
<path style=" stroke:none;fill-rule:evenodd;fill:rgb(0%,0%,0%);fill-opacity:1;" d="M -48.285156 111.175781 L 553.855469 111.175781 L 553.855469 339.714844 L -48.285156 339.714844 Z M -48.285156 111.175781 "/>
</g>
<path style=" stroke:none;fill-rule:evenodd;fill:rgb(100%,83.139038%,0%);fill-opacity:1;" d="M 193.074219 197.378906 L 300.453125 197.378906 L 300.453125 204.394531 L 193.074219 204.394531 Z M 193.074219 197.378906 "/>
<path style=" stroke:none;fill-rule:evenodd;fill:rgb(100%,83.139038%,0%);fill-opacity:1;" d="M 298.445312 192.367188 L 319.519531 172.320312 L 296.4375 182.34375 L 313.5 158.289062 L 290.417969 166.308594 L 300.453125 142.25 L 278.375 154.277344 L 284.398438 130.222656 L 264.324219 147.261719 L 265.328125 123.207031 L 254.289062 144.253906 L 247.265625 120.199219 L 239.234375 144.253906 L 228.195312 123.207031 L 229.199219 147.261719 L 210.132812 130.222656 L 215.152344 154.277344 L 193.074219 142.25 L 204.113281 166.308594 L 181.03125 158.289062 L 198.089844 182.34375 L 174.003906 173.324219 L 195.078125 192.367188 Z M 298.445312 192.367188 "/>
<g clip-path="url(#clip3)" clip-rule="nonzero">
<path style=" stroke:none;fill-rule:evenodd;fill:rgb(0%,60.389709%,24.708557%);fill-opacity:1;" d="M -48.285156 225.445312 L 553.855469 225.445312 L 553.855469 339.714844 L -48.285156 339.714844 Z M -48.285156 225.445312 "/>
</g>
</g>
</svg>
