<?xml version="1.0" encoding="UTF-8"?>
<svg xmlns="http://www.w3.org/2000/svg" xmlns:xlink="http://www.w3.org/1999/xlink" width="506.25pt" height="337.499995pt" viewBox="0 0 506.25 337.499995" version="1.2">
<defs>
<clipPath id="clip1">
  <path d="M 0 0 L 505.5 0 L 505.5 337 L 0 337 Z M 0 0 "/>
</clipPath>
<clipPath id="clip2">
  <path d="M 0 0 L 505.5 0 L 505.5 197 L 0 197 Z M 0 0 "/>
</clipPath>
<clipPath id="clip3">
  <path d="M 0 106 L 505.5 106 L 505.5 337 L 0 337 Z M 0 106 "/>
</clipPath>
</defs>
<g id="surface1">
<g clip-path="url(#clip1)" clip-rule="nonzero">
<path style=" stroke:none;fill-rule:nonzero;fill:rgb(100%,100%,100%);fill-opacity:1;" d="M 0 0 L 505.5 0 L 505.5 337 L 0 337 Z M 0 0 "/>
<path style=" stroke:none;fill-rule:nonzero;fill:rgb(100%,100%,100%);fill-opacity:1;" d="M 0 0 L 505.5 0 L 505.5 337 L 0 337 Z M 0 0 "/>
<rect x="0" y="0" width="506.25" height="337.499995" style="fill:rgb(100%,100%,100%);fill-opacity:1;stroke:none;"/>
</g>
<g clip-path="url(#clip2)" clip-rule="nonzero">
<path style=" stroke:none;fill-rule:nonzero;fill:rgb(0%,0%,0%);fill-opacity:1;" d="M -52.386719 44.242188 L 117.175781 44.242188 C 118.425781 44.242188 119.671875 44.273438 120.921875 44.335938 C 122.167969 44.398438 123.414062 44.488281 124.65625 44.613281 C 125.898438 44.734375 127.136719 44.886719 128.371094 45.070312 C 129.605469 45.253906 130.835938 45.46875 132.058594 45.714844 C 133.285156 45.957031 134.503906 46.230469 135.714844 46.535156 C 136.925781 46.839844 138.125 47.171875 139.320312 47.535156 C 140.515625 47.898438 141.699219 48.292969 142.875 48.714844 C 144.050781 49.136719 145.214844 49.585938 146.371094 50.0625 C 147.523438 50.542969 148.664062 51.046875 149.792969 51.582031 C 150.921875 52.117188 152.035156 52.679688 153.136719 53.269531 C 154.238281 53.859375 155.324219 54.472656 156.394531 55.117188 C 157.464844 55.757812 158.519531 56.429688 159.558594 57.121094 C 160.59375 57.816406 161.613281 58.535156 162.617188 59.28125 C 163.621094 60.027344 164.605469 60.796875 165.570312 61.589844 C 166.535156 62.382812 167.480469 63.199219 168.402344 64.035156 C 169.328125 64.875 170.234375 65.738281 171.113281 66.621094 C 171.996094 67.503906 172.859375 68.410156 173.695312 69.335938 C 174.535156 70.261719 175.351562 71.207031 176.140625 72.175781 C 176.933594 73.140625 177.703125 74.125 178.445312 75.128906 C 179.1875 76.132812 179.90625 77.15625 180.601562 78.195312 C 181.292969 79.234375 181.960938 80.289062 182.605469 81.359375 C 183.246094 82.433594 183.859375 83.519531 184.449219 84.621094 C 185.039062 85.726562 185.597656 86.839844 186.132812 87.96875 C 186.664062 89.101562 187.171875 90.242188 187.648438 91.398438 C 188.125 92.550781 188.574219 93.71875 188.996094 94.894531 C 189.417969 96.070312 189.808594 97.257812 190.171875 98.453125 C 190.53125 99.648438 190.867188 100.851562 191.167969 102.066406 C 191.472656 103.277344 191.746094 104.496094 191.988281 105.722656 C 192.234375 106.949219 192.445312 108.179688 192.628906 109.414062 C 192.8125 110.652344 192.964844 111.890625 193.085938 113.136719 C 193.210938 114.378906 193.300781 115.625 193.363281 116.871094 C 193.425781 118.121094 193.453125 119.371094 193.453125 120.621094 C 193.453125 121.871094 193.425781 123.117188 193.363281 124.367188 C 193.300781 125.613281 193.210938 126.859375 193.085938 128.105469 C 192.964844 129.347656 192.8125 130.585938 192.628906 131.824219 C 192.445312 133.058594 192.234375 134.292969 191.988281 135.515625 C 191.746094 136.742188 191.472656 137.960938 191.167969 139.175781 C 190.867188 140.386719 190.53125 141.589844 190.171875 142.785156 C 189.808594 143.980469 189.417969 145.167969 188.996094 146.34375 C 188.574219 147.523438 188.125 148.6875 187.648438 149.84375 C 187.171875 150.996094 186.664062 152.140625 186.132812 153.269531 C 185.597656 154.398438 185.039062 155.515625 184.449219 156.617188 C 183.859375 157.71875 183.246094 158.804688 182.601562 159.878906 C 181.960938 160.949219 181.292969 162.003906 180.601562 163.042969 C 179.90625 164.082031 179.1875 165.105469 178.445312 166.109375 C 177.703125 167.113281 176.933594 168.097656 176.140625 169.0625 C 175.351562 170.03125 174.535156 170.976562 173.695312 171.902344 C 172.859375 172.828125 171.996094 173.734375 171.113281 174.617188 C 170.234375 175.5 169.328125 176.363281 168.402344 177.203125 C 167.480469 178.042969 166.535156 178.859375 165.570312 179.652344 C 164.605469 180.445312 163.621094 181.210938 162.617188 181.957031 C 161.613281 182.703125 160.59375 183.421875 159.558594 184.117188 C 158.519531 184.8125 157.464844 185.480469 156.394531 186.121094 C 155.324219 186.765625 154.238281 187.378906 153.136719 187.96875 C 152.035156 188.558594 150.921875 189.121094 149.792969 189.65625 C 148.664062 190.191406 147.523438 190.699219 146.371094 191.175781 C 145.214844 191.65625 144.050781 192.105469 142.875 192.527344 C 141.699219 192.945312 140.515625 193.339844 139.320312 193.703125 C 138.125 194.066406 136.925781 194.398438 135.714844 194.703125 C 134.503906 195.007812 133.285156 195.28125 132.058594 195.523438 C 130.835938 195.769531 129.605469 195.984375 128.371094 196.167969 C 127.136719 196.351562 125.898438 196.503906 124.65625 196.628906 C 123.414062 196.75 122.167969 196.84375 120.921875 196.902344 C 119.671875 196.964844 118.425781 196.996094 117.175781 196.996094 L 558.042969 196.996094 L 558.042969 -1.019531 L -52.386719 -1.019531 "/>
</g>
<g clip-path="url(#clip3)" clip-rule="nonzero">
<path style=" stroke:none;fill-rule:nonzero;fill:rgb(83.139038%,0%,0%);fill-opacity:1;" d="M -52.386719 106.476562 L 117.175781 106.476562 C 118.660156 106.476562 120.136719 106.546875 121.609375 106.695312 C 123.082031 106.839844 124.546875 107.054688 126 107.34375 C 127.453125 107.632812 128.886719 107.996094 130.304688 108.425781 C 131.71875 108.855469 133.113281 109.355469 134.480469 109.921875 C 135.847656 110.488281 137.1875 111.121094 138.492188 111.820312 C 139.796875 112.519531 141.066406 113.28125 142.296875 114.101562 C 143.53125 114.925781 144.71875 115.808594 145.863281 116.75 C 147.007812 117.691406 148.101562 118.683594 149.152344 119.730469 C 150.199219 120.78125 151.191406 121.878906 152.128906 123.023438 C 153.070312 124.167969 153.953125 125.359375 154.773438 126.589844 C 155.597656 127.824219 156.355469 129.09375 157.054688 130.402344 C 157.753906 131.707031 158.386719 133.046875 158.953125 134.414062 C 159.519531 135.785156 160.015625 137.179688 160.449219 138.597656 C 160.878906 140.015625 161.238281 141.453125 161.527344 142.90625 C 161.816406 144.359375 162.03125 145.824219 162.175781 147.300781 C 162.320312 148.773438 162.394531 150.253906 162.394531 151.738281 C 162.394531 153.21875 162.320312 154.699219 162.175781 156.171875 C 162.03125 157.648438 161.816406 159.113281 161.527344 160.566406 C 161.238281 162.019531 160.878906 163.457031 160.449219 164.875 C 160.015625 166.292969 159.519531 167.6875 158.953125 169.058594 C 158.386719 170.425781 157.753906 171.765625 157.054688 173.070312 C 156.355469 174.378906 155.597656 175.648438 154.773438 176.882812 C 153.953125 178.113281 153.070312 179.304688 152.128906 180.449219 C 151.191406 181.59375 150.199219 182.691406 149.152344 183.742188 C 148.101562 184.789062 147.007812 185.78125 145.863281 186.722656 C 144.71875 187.664062 143.53125 188.546875 142.296875 189.371094 C 141.066406 190.191406 139.796875 190.953125 138.492188 191.652344 C 137.1875 192.351562 135.847656 192.984375 134.480469 193.550781 C 133.113281 194.121094 131.71875 194.617188 130.304688 195.046875 C 128.886719 195.480469 127.453125 195.839844 126 196.128906 C 124.546875 196.417969 123.082031 196.632812 121.609375 196.78125 C 120.136719 196.925781 118.660156 196.996094 117.175781 196.996094 C 118.195312 196.996094 119.210938 196.949219 120.222656 196.847656 C 121.238281 196.746094 122.242188 196.597656 123.242188 196.398438 C 124.242188 196.199219 125.226562 195.953125 126.203125 195.65625 C 127.175781 195.363281 128.132812 195.019531 129.074219 194.628906 C 130.015625 194.238281 130.933594 193.804688 131.832031 193.324219 C 132.730469 192.84375 133.601562 192.320312 134.449219 191.753906 C 135.292969 191.1875 136.113281 190.582031 136.898438 189.933594 C 137.6875 189.289062 138.4375 188.605469 139.160156 187.882812 C 139.878906 187.164062 140.5625 186.410156 141.207031 185.621094 C 141.855469 184.832031 142.460938 184.015625 143.023438 183.167969 C 143.589844 182.320312 144.113281 181.449219 144.59375 180.550781 C 145.074219 179.648438 145.507812 178.730469 145.898438 177.789062 C 146.289062 176.847656 146.628906 175.886719 146.925781 174.914062 C 147.222656 173.9375 147.46875 172.949219 147.667969 171.949219 C 147.867188 170.953125 148.015625 169.945312 148.113281 168.929688 C 148.214844 167.917969 148.265625 166.898438 148.265625 165.878906 C 148.265625 164.863281 148.214844 163.84375 148.113281 162.832031 C 148.015625 161.816406 147.867188 160.808594 147.667969 159.808594 C 147.46875 158.808594 147.222656 157.824219 146.925781 156.847656 C 146.628906 155.871094 146.289062 154.914062 145.898438 153.972656 C 145.507812 153.03125 145.074219 152.109375 144.59375 151.210938 C 144.113281 150.3125 143.589844 149.441406 143.023438 148.59375 C 142.460938 147.746094 141.855469 146.929688 141.207031 146.140625 C 140.5625 145.351562 139.878906 144.597656 139.160156 143.878906 C 138.4375 143.15625 137.6875 142.472656 136.898438 141.828125 C 136.113281 141.179688 135.292969 140.574219 134.449219 140.007812 C 133.601562 139.441406 132.730469 138.917969 131.832031 138.4375 C 130.933594 137.957031 130.015625 137.523438 129.074219 137.132812 C 128.132812 136.742188 127.175781 136.398438 126.203125 136.101562 C 125.226562 135.808594 124.242188 135.558594 123.242188 135.363281 C 122.242188 135.164062 121.238281 135.011719 120.222656 134.914062 C 119.210938 134.8125 118.195312 134.761719 117.175781 134.761719 C 115.140625 134.761719 113.109375 134.863281 111.082031 135.0625 C 109.058594 135.261719 107.046875 135.5625 105.046875 135.960938 C 103.050781 136.355469 101.078125 136.851562 99.128906 137.445312 C 97.179688 138.035156 95.265625 138.722656 93.386719 139.5 C 91.503906 140.28125 89.664062 141.152344 87.871094 142.113281 C 86.074219 143.074219 84.328125 144.121094 82.636719 145.25 C 80.941406 146.382812 79.308594 147.597656 77.734375 148.890625 C 76.160156 150.183594 74.652344 151.550781 73.214844 152.992188 C 71.773438 154.433594 70.410156 155.941406 69.117188 157.515625 C 67.824219 159.09375 66.613281 160.726562 65.480469 162.421875 C 64.351562 164.117188 63.304688 165.863281 62.34375 167.660156 C 61.386719 169.457031 60.515625 171.296875 59.738281 173.179688 C 58.957031 175.066406 58.273438 176.980469 57.679688 178.933594 C 57.089844 180.882812 56.597656 182.855469 56.199219 184.855469 C 55.800781 186.855469 55.503906 188.867188 55.304688 190.898438 C 55.105469 192.925781 55.003906 194.960938 55.003906 196.996094 C 55.003906 199.035156 55.105469 201.070312 55.304688 203.097656 C 55.503906 205.125 55.800781 207.140625 56.199219 209.136719 C 56.597656 211.136719 57.089844 213.113281 57.679688 215.0625 C 58.273438 217.011719 58.957031 218.929688 59.738281 220.8125 C 60.515625 222.695312 61.386719 224.535156 62.34375 226.335938 C 63.304688 228.132812 64.351562 229.878906 65.480469 231.574219 C 66.613281 233.265625 67.824219 234.902344 69.117188 236.476562 C 70.410156 238.054688 71.773438 239.5625 73.214844 241.003906 C 74.652344 242.445312 76.160156 243.8125 77.734375 245.105469 C 79.308594 246.398438 80.941406 247.609375 82.636719 248.742188 C 84.328125 249.875 86.074219 250.921875 87.871094 251.882812 C 89.664062 252.84375 91.503906 253.714844 93.386719 254.492188 C 95.265625 255.273438 97.179688 255.960938 99.128906 256.550781 C 101.078125 257.144531 103.050781 257.636719 105.046875 258.035156 C 107.046875 258.433594 109.058594 258.730469 111.082031 258.929688 C 113.109375 259.132812 115.140625 259.230469 117.175781 259.230469 L 558.042969 259.230469 L 558.042969 338.4375 L -52.386719 338.4375 "/>
</g>
</g>
</svg>
