<?xml version="1.0" encoding="UTF-8"?>
<svg xmlns="http://www.w3.org/2000/svg" xmlns:xlink="http://www.w3.org/1999/xlink" width="506.25pt" height="337.499995pt" viewBox="0 0 506.25 337.499995" version="1.2">
<defs>
<clipPath id="clip1">
  <path d="M 0 0 L 505.5 0 L 505.5 337 L 0 337 Z M 0 0 "/>
</clipPath>
</defs>
<g id="surface1">
<g clip-path="url(#clip1)" clip-rule="nonzero">
<path style=" stroke:none;fill-rule:nonzero;fill:rgb(100%,100%,100%);fill-opacity:1;" d="M 0 0 L 505.5 0 L 505.5 337 L 0 337 Z M 0 0 "/>
<path style=" stroke:none;fill-rule:nonzero;fill:rgb(100%,100%,100%);fill-opacity:1;" d="M 0 0 L 505.5 0 L 505.5 337 L 0 337 Z M 0 0 "/>
<path style=" stroke:none;fill-rule:nonzero;fill:rgb(85.488892%,12.548828%,19.60907%);fill-opacity:1;" d="M -35.945312 0 L 638.054688 0 L 638.054688 337 L -35.945312 337 Z M -35.945312 0 "/>
</g>
<path style=" stroke:none;fill-rule:nonzero;fill:rgb(0%,39.99939%,70.199585%);fill-opacity:1;" d="M 188.71875 0 L 413.386719 0 L 413.386719 337 L 188.71875 337 Z M 188.71875 0 "/>
<path style=" stroke:none;fill-rule:nonzero;fill:rgb(100%,85.099792%,0%);fill-opacity:1;" d="M 14.605469 151.652344 L 42.6875 151.652344 L 42.6875 286.449219 L 14.605469 286.449219 Z M 110.085938 151.652344 L 138.171875 151.652344 L 138.171875 286.449219 L 110.085938 286.449219 Z M 48.304688 269.601562 L 76.386719 286.449219 L 104.46875 269.601562 Z M 48.304688 252.75 L 104.46875 252.75 L 104.46875 263.984375 L 48.304688 263.984375 Z M 48.304688 151.652344 L 76.386719 168.5 L 104.46875 151.652344 Z M 48.304688 174.117188 L 104.46875 174.117188 L 104.46875 185.351562 L 48.304688 185.351562 Z M 89.726562 194.367188 C 90.769531 195.789062 91.570312 197.335938 92.121094 199.007812 C 92.671875 200.683594 92.949219 202.402344 92.953125 204.164062 C 92.957031 213.316406 85.539062 220.738281 76.386719 220.738281 C 75.519531 220.738281 74.660156 220.824219 73.8125 220.992188 C 72.960938 221.164062 72.136719 221.414062 71.335938 221.746094 C 70.535156 222.078125 69.773438 222.484375 69.054688 222.964844 C 68.332031 223.445312 67.667969 223.992188 67.054688 224.605469 C 66.441406 225.21875 65.894531 225.886719 65.414062 226.605469 C 64.933594 227.328125 64.527344 228.085938 64.195312 228.886719 C 63.863281 229.6875 63.613281 230.511719 63.441406 231.363281 C 63.273438 232.210938 63.1875 233.070312 63.1875 233.9375 C 63.191406 234.804688 63.273438 235.660156 63.445312 236.511719 C 63.613281 237.363281 63.863281 238.1875 64.195312 238.988281 C 64.527344 239.789062 64.933594 240.546875 65.414062 241.269531 C 65.894531 241.988281 66.445312 242.65625 67.054688 243.269531 C 67.667969 243.882812 68.335938 244.429688 69.054688 244.910156 C 69.777344 245.390625 70.535156 245.796875 71.335938 246.128906 C 72.136719 246.460938 72.960938 246.710938 73.8125 246.878906 C 74.664062 247.050781 75.519531 247.132812 76.386719 247.132812 C 91.894531 247.132812 104.46875 234.558594 104.46875 219.050781 C 104.46875 208.742188 98.796875 199.265625 89.726562 194.367188 Z M 76.386719 228.320312 C 76.753906 228.320312 77.121094 228.355469 77.484375 228.429688 C 77.84375 228.5 78.195312 228.605469 78.535156 228.746094 C 78.878906 228.890625 79.199219 229.0625 79.507812 229.265625 C 79.8125 229.472656 80.097656 229.703125 80.359375 229.964844 C 80.621094 230.226562 80.851562 230.511719 81.058594 230.816406 C 81.261719 231.125 81.433594 231.445312 81.574219 231.789062 C 81.71875 232.128906 81.824219 232.480469 81.894531 232.839844 C 81.96875 233.203125 82.003906 233.566406 82.003906 233.9375 C 82.003906 234.304688 81.96875 234.671875 81.894531 235.03125 C 81.824219 235.394531 81.71875 235.746094 81.574219 236.085938 C 81.433594 236.425781 81.261719 236.75 81.058594 237.058594 C 80.851562 237.363281 80.621094 237.648438 80.359375 237.910156 C 80.097656 238.167969 79.8125 238.402344 79.507812 238.605469 C 79.199219 238.8125 78.878906 238.984375 78.535156 239.125 C 78.195312 239.265625 77.84375 239.375 77.484375 239.445312 C 77.121094 239.519531 76.753906 239.554688 76.386719 239.554688 C 76.019531 239.554688 75.652344 239.519531 75.292969 239.445312 C 74.929688 239.375 74.578125 239.265625 74.238281 239.125 C 73.898438 238.984375 73.574219 238.8125 73.265625 238.605469 C 72.960938 238.402344 72.675781 238.167969 72.414062 237.910156 C 72.15625 237.648438 71.921875 237.363281 71.714844 237.058594 C 71.511719 236.75 71.339844 236.425781 71.199219 236.085938 C 71.054688 235.746094 70.949219 235.394531 70.878906 235.03125 C 70.804688 234.671875 70.769531 234.304688 70.769531 233.9375 C 70.769531 233.566406 70.804688 233.203125 70.878906 232.839844 C 70.949219 232.480469 71.054688 232.128906 71.199219 231.789062 C 71.339844 231.445312 71.511719 231.125 71.714844 230.816406 C 71.921875 230.511719 72.15625 230.226562 72.414062 229.964844 C 72.675781 229.703125 72.960938 229.472656 73.265625 229.265625 C 73.574219 229.0625 73.898438 228.890625 74.238281 228.746094 C 74.578125 228.605469 74.929688 228.5 75.292969 228.429688 C 75.652344 228.355469 76.019531 228.320312 76.386719 228.320312 Z M 76.386719 228.320312 "/>
<path style=" stroke:none;fill-rule:nonzero;fill:rgb(100%,85.099792%,0%);fill-opacity:1;" d="M 63.046875 243.734375 C 62.003906 242.3125 61.203125 240.765625 60.652344 239.09375 C 60.101562 237.417969 59.824219 235.699219 59.820312 233.9375 C 59.816406 224.785156 67.234375 217.363281 76.386719 217.363281 C 77.253906 217.363281 78.113281 217.277344 78.960938 217.109375 C 79.8125 216.9375 80.636719 216.6875 81.4375 216.355469 C 82.238281 216.023438 83 215.617188 83.71875 215.136719 C 84.441406 214.65625 85.105469 214.109375 85.71875 213.496094 C 86.332031 212.882812 86.878906 212.214844 87.359375 211.496094 C 87.839844 210.773438 88.25 210.015625 88.578125 209.214844 C 88.910156 208.414062 89.160156 207.589844 89.332031 206.738281 C 89.5 205.886719 89.585938 205.03125 89.585938 204.164062 C 89.585938 203.296875 89.5 202.4375 89.332031 201.589844 C 89.160156 200.738281 88.910156 199.914062 88.578125 199.113281 C 88.246094 198.3125 87.839844 197.550781 87.359375 196.832031 C 86.878906 196.113281 86.332031 195.445312 85.71875 194.832031 C 85.105469 194.21875 84.4375 193.671875 83.71875 193.191406 C 82.996094 192.710938 82.238281 192.304688 81.4375 191.972656 C 80.636719 191.640625 79.8125 191.390625 78.960938 191.222656 C 78.109375 191.050781 77.253906 190.96875 76.386719 190.96875 C 60.878906 190.96875 48.304688 203.539062 48.304688 219.050781 C 48.304688 229.359375 53.976562 238.835938 63.046875 243.734375 Z M 76.386719 209.78125 C 76.019531 209.78125 75.652344 209.746094 75.292969 209.671875 C 74.929688 209.601562 74.578125 209.496094 74.238281 209.351562 C 73.898438 209.210938 73.574219 209.039062 73.265625 208.835938 C 72.960938 208.628906 72.675781 208.394531 72.414062 208.136719 C 72.15625 207.875 71.921875 207.589844 71.714844 207.285156 C 71.511719 206.976562 71.339844 206.652344 71.199219 206.3125 C 71.054688 205.972656 70.949219 205.621094 70.878906 205.261719 C 70.804688 204.898438 70.769531 204.53125 70.769531 204.164062 C 70.769531 203.796875 70.804688 203.429688 70.878906 203.070312 C 70.949219 202.707031 71.054688 202.355469 71.199219 202.015625 C 71.339844 201.675781 71.511719 201.351562 71.714844 201.042969 C 71.921875 200.738281 72.15625 200.453125 72.414062 200.191406 C 72.675781 199.933594 72.960938 199.699219 73.265625 199.492188 C 73.574219 199.289062 73.898438 199.117188 74.238281 198.976562 C 74.578125 198.832031 74.929688 198.726562 75.292969 198.65625 C 75.652344 198.582031 76.019531 198.546875 76.386719 198.546875 C 76.753906 198.546875 77.121094 198.582031 77.484375 198.65625 C 77.84375 198.726562 78.195312 198.832031 78.535156 198.976562 C 78.878906 199.117188 79.199219 199.289062 79.507812 199.492188 C 79.8125 199.699219 80.097656 199.933594 80.359375 200.191406 C 80.621094 200.453125 80.851562 200.738281 81.058594 201.042969 C 81.261719 201.351562 81.433594 201.675781 81.574219 202.015625 C 81.71875 202.355469 81.824219 202.707031 81.894531 203.066406 C 81.96875 203.429688 82.003906 203.796875 82.003906 204.164062 C 82.003906 204.53125 81.96875 204.898438 81.894531 205.261719 C 81.824219 205.621094 81.71875 205.972656 81.574219 206.3125 C 81.433594 206.652344 81.261719 206.976562 81.058594 207.285156 C 80.851562 207.589844 80.621094 207.875 80.359375 208.136719 C 80.097656 208.394531 79.8125 208.628906 79.507812 208.835938 C 79.199219 209.039062 78.878906 209.210938 78.535156 209.351562 C 78.195312 209.496094 77.84375 209.601562 77.484375 209.671875 C 77.121094 209.746094 76.753906 209.78125 76.386719 209.78125 Z M 45.550781 114.527344 C 45.53125 114.730469 45.511719 114.9375 45.496094 115.140625 C 45.496094 116.152344 45.542969 117.164062 45.644531 118.171875 C 45.742188 119.175781 45.890625 120.175781 46.089844 121.167969 C 46.285156 122.160156 46.53125 123.140625 46.824219 124.109375 C 47.117188 125.078125 47.460938 126.027344 47.847656 126.964844 C 48.234375 127.898438 48.664062 128.8125 49.140625 129.703125 C 49.621094 130.597656 50.140625 131.464844 50.699219 132.304688 C 51.261719 133.144531 51.863281 133.957031 52.507812 134.738281 C 53.148438 135.523438 53.828125 136.269531 54.542969 136.984375 C 55.257812 137.703125 56.007812 138.378906 56.789062 139.023438 C 57.570312 139.664062 58.382812 140.265625 59.222656 140.828125 C 60.066406 141.390625 60.933594 141.910156 61.824219 142.386719 C 62.714844 142.863281 63.628906 143.296875 64.566406 143.683594 C 65.5 144.070312 66.449219 144.410156 67.417969 144.703125 C 68.386719 144.996094 69.367188 145.242188 70.359375 145.441406 C 71.351562 145.636719 72.351562 145.785156 73.359375 145.886719 C 74.367188 145.984375 75.375 146.035156 76.386719 146.035156 C 77.398438 146.035156 78.40625 145.984375 79.414062 145.886719 C 80.421875 145.785156 81.421875 145.636719 82.414062 145.441406 C 83.40625 145.242188 84.386719 144.996094 85.355469 144.703125 C 86.320312 144.410156 87.273438 144.070312 88.207031 143.683594 C 89.144531 143.296875 90.054688 142.863281 90.949219 142.386719 C 91.839844 141.910156 92.707031 141.390625 93.550781 140.828125 C 94.390625 140.265625 95.203125 139.664062 95.984375 139.023438 C 96.765625 138.378906 97.515625 137.703125 98.230469 136.984375 C 98.945312 136.269531 99.625 135.523438 100.265625 134.738281 C 100.90625 133.957031 101.511719 133.144531 102.070312 132.304688 C 102.632812 131.464844 103.152344 130.597656 103.628906 129.703125 C 104.109375 128.8125 104.539062 127.898438 104.925781 126.964844 C 105.3125 126.027344 105.65625 125.078125 105.949219 124.109375 C 106.242188 123.140625 106.488281 122.160156 106.683594 121.167969 C 106.882812 120.175781 107.03125 119.175781 107.128906 118.171875 C 107.230469 117.164062 107.277344 116.152344 107.277344 115.140625 C 107.28125 114.953125 107.28125 114.769531 107.277344 114.582031 C 106.625 116.074219 105.871094 117.511719 105.007812 118.898438 C 104.148438 120.28125 103.191406 121.597656 102.140625 122.839844 C 101.089844 124.085938 99.953125 125.25 98.730469 126.328125 C 97.511719 127.410156 96.21875 128.398438 94.855469 129.289062 C 93.492188 130.183594 92.070312 130.972656 90.59375 131.660156 C 89.117188 132.347656 87.597656 132.921875 86.035156 133.390625 C 84.472656 133.855469 82.886719 134.207031 81.273438 134.441406 C 79.660156 134.679688 78.039062 134.796875 76.410156 134.796875 C 74.777344 134.796875 73.15625 134.675781 71.542969 134.4375 C 69.929688 134.199219 68.339844 133.847656 66.777344 133.378906 C 65.214844 132.910156 63.695312 132.332031 62.21875 131.640625 C 60.738281 130.953125 59.320312 130.160156 57.957031 129.265625 C 56.59375 128.367188 55.300781 127.378906 54.082031 126.296875 C 52.863281 125.214844 51.726562 124.046875 50.675781 122.800781 C 49.625 121.550781 48.671875 120.234375 47.8125 118.847656 C 46.953125 117.460938 46.199219 116.019531 45.550781 114.523438 Z M 45.550781 114.527344 "/>
<path style=" stroke:none;fill-rule:nonzero;fill:rgb(100%,85.099792%,0%);fill-opacity:1;" d="M 98.875 106.714844 C 98.875 107.453125 98.839844 108.1875 98.769531 108.917969 C 98.695312 109.652344 98.589844 110.378906 98.445312 111.101562 C 98.300781 111.820312 98.121094 112.535156 97.910156 113.238281 C 97.695312 113.941406 97.449219 114.632812 97.167969 115.3125 C 96.886719 115.992188 96.570312 116.660156 96.222656 117.308594 C 95.878906 117.957031 95.5 118.585938 95.089844 119.199219 C 94.679688 119.808594 94.242188 120.402344 93.777344 120.96875 C 93.308594 121.539062 92.816406 122.082031 92.296875 122.601562 C 91.777344 123.125 91.230469 123.617188 90.664062 124.082031 C 90.09375 124.550781 89.503906 124.988281 88.890625 125.398438 C 88.28125 125.804688 87.648438 126.183594 87 126.53125 C 86.351562 126.878906 85.6875 127.191406 85.007812 127.472656 C 84.328125 127.753906 83.636719 128.003906 82.933594 128.214844 C 82.226562 128.429688 81.515625 128.609375 80.792969 128.75 C 80.070312 128.894531 79.34375 129.003906 78.613281 129.074219 C 77.878906 129.148438 77.144531 129.183594 76.410156 129.183594 C 75.675781 129.183594 74.941406 129.148438 74.207031 129.074219 C 73.476562 129.003906 72.75 128.894531 72.027344 128.75 C 71.304688 128.609375 70.59375 128.429688 69.886719 128.214844 C 69.183594 128.003906 68.492188 127.753906 67.8125 127.472656 C 67.132812 127.191406 66.46875 126.878906 65.820312 126.53125 C 65.171875 126.183594 64.539062 125.804688 63.929688 125.398438 C 63.316406 124.988281 62.726562 124.550781 62.15625 124.082031 C 61.589844 123.617188 61.042969 123.125 60.523438 122.601562 C 60.003906 122.082031 59.511719 121.539062 59.042969 120.96875 C 58.578125 120.402344 58.136719 119.808594 57.730469 119.199219 C 57.320312 118.585938 56.941406 117.957031 56.597656 117.308594 C 56.25 116.660156 55.933594 115.992188 55.652344 115.3125 C 55.371094 114.632812 55.125 113.941406 54.910156 113.238281 C 54.695312 112.535156 54.519531 111.820312 54.375 111.101562 C 54.230469 110.378906 54.125 109.652344 54.050781 108.917969 C 53.980469 108.1875 53.941406 107.453125 53.941406 106.714844 C 53.941406 105.980469 53.980469 105.246094 54.050781 104.515625 C 54.125 103.78125 54.230469 103.054688 54.375 102.332031 C 54.519531 101.613281 54.695312 100.898438 54.910156 100.195312 C 55.125 99.492188 55.371094 98.796875 55.652344 98.117188 C 55.933594 97.4375 56.25 96.773438 56.597656 96.125 C 56.941406 95.476562 57.320312 94.847656 57.730469 94.234375 C 58.136719 93.621094 58.578125 93.03125 59.042969 92.464844 C 59.511719 91.894531 60.003906 91.351562 60.523438 90.832031 C 61.042969 90.308594 61.589844 89.816406 62.15625 89.347656 C 62.726562 88.882812 63.316406 88.445312 63.929688 88.035156 C 64.539062 87.628906 65.171875 87.25 65.820312 86.902344 C 66.46875 86.554688 67.132812 86.242188 67.8125 85.960938 C 68.492188 85.679688 69.183594 85.429688 69.886719 85.21875 C 70.59375 85.003906 71.304688 84.824219 72.027344 84.679688 C 72.75 84.539062 73.476562 84.429688 74.207031 84.359375 C 74.941406 84.285156 75.675781 84.25 76.410156 84.25 C 77.144531 84.25 77.878906 84.285156 78.613281 84.359375 C 79.34375 84.429688 80.070312 84.539062 80.792969 84.679688 C 81.515625 84.824219 82.226562 85.003906 82.933594 85.21875 C 83.636719 85.429688 84.328125 85.679688 85.007812 85.960938 C 85.6875 86.242188 86.351562 86.554688 87 86.902344 C 87.648438 87.25 88.28125 87.628906 88.890625 88.035156 C 89.503906 88.445312 90.09375 88.882812 90.664062 89.347656 C 91.230469 89.816406 91.777344 90.308594 92.296875 90.832031 C 92.816406 91.351562 93.308594 91.894531 93.777344 92.464844 C 94.242188 93.03125 94.679688 93.621094 95.089844 94.234375 C 95.5 94.847656 95.878906 95.476562 96.222656 96.125 C 96.570312 96.773438 96.886719 97.4375 97.167969 98.117188 C 97.449219 98.796875 97.695312 99.492188 97.910156 100.195312 C 98.121094 100.898438 98.300781 101.613281 98.445312 102.332031 C 98.589844 103.054688 98.695312 103.78125 98.769531 104.515625 C 98.839844 105.246094 98.875 105.980469 98.875 106.714844 Z M 98.875 106.714844 "/>
<path style=" stroke:none;fill-rule:nonzero;fill:rgb(100%,85.099792%,0%);fill-opacity:1;" d="M 78.746094 33.707031 C 75.957031 34.972656 74.914062 37.257812 74.6875 39.53125 C 74.546875 41.449219 75.394531 43.605469 75.476562 45.476562 C 75.476562 48.703125 72.144531 49.761719 72.144531 54.363281 C 72.144531 55.945312 73.601562 57.6875 73.601562 61.789062 C 73.351562 63.945312 72.148438 64.429688 70.792969 64.597656 C 70.421875 64.597656 70.0625 64.527344 69.71875 64.386719 C 69.375 64.242188 69.070312 64.039062 68.808594 63.777344 C 68.546875 63.511719 68.34375 63.210938 68.199219 62.867188 C 68.058594 62.519531 67.984375 62.164062 67.984375 61.789062 C 67.988281 61.042969 68.246094 60.398438 68.765625 59.859375 C 68.851562 59.757812 68.949219 59.664062 69.050781 59.578125 C 69.691406 58.933594 70.570312 58.683594 70.5625 56.976562 C 70.5625 56.101562 69.996094 55.304688 69.453125 53.753906 C 68.945312 52.246094 69.316406 49.730469 70.53125 48.246094 C 68.566406 49.003906 67.351562 50.886719 66.734375 52.578125 C 66.082031 54.65625 66.652344 55.851562 65.757812 57.582031 C 65.214844 58.699219 64.566406 59.160156 63.949219 60.09375 C 63.222656 61.109375 62.367188 63.488281 62.367188 64.589844 C 62.367188 65.511719 62.457031 66.425781 62.636719 67.332031 C 62.816406 68.234375 63.085938 69.113281 63.4375 69.964844 C 63.789062 70.816406 64.222656 71.625 64.734375 72.394531 C 65.246094 73.160156 65.828125 73.867188 66.480469 74.519531 C 67.132812 75.171875 67.84375 75.753906 68.609375 76.265625 C 69.375 76.777344 70.183594 77.210938 71.035156 77.566406 C 71.886719 77.917969 72.765625 78.183594 73.671875 78.363281 C 74.574219 78.542969 75.488281 78.632812 76.410156 78.632812 C 77.332031 78.632812 78.246094 78.542969 79.148438 78.363281 C 80.054688 78.183594 80.933594 77.917969 81.785156 77.566406 C 82.636719 77.210938 83.445312 76.777344 84.210938 76.265625 C 84.976562 75.753906 85.6875 75.171875 86.339844 74.519531 C 86.992188 73.867188 87.574219 73.160156 88.085938 72.394531 C 88.597656 71.625 89.03125 70.816406 89.382812 69.964844 C 89.734375 69.113281 90.003906 68.234375 90.183594 67.332031 C 90.363281 66.425781 90.453125 65.511719 90.453125 64.589844 C 90.453125 63.488281 89.609375 61.109375 88.882812 60.09375 C 88.265625 59.160156 87.605469 58.699219 87.0625 57.582031 C 86.179688 55.851562 86.746094 54.65625 86.097656 52.578125 C 85.476562 50.886719 84.265625 49.003906 82.300781 48.246094 C 83.515625 49.730469 83.886719 52.246094 83.375 53.753906 C 82.832031 55.300781 82.257812 56.101562 82.257812 56.976562 C 82.257812 58.683594 83.132812 58.933594 83.773438 59.578125 C 83.875 59.664062 83.96875 59.757812 84.058594 59.859375 C 84.574219 60.398438 84.835938 61.042969 84.835938 61.789062 C 84.835938 62.164062 84.765625 62.519531 84.621094 62.867188 C 84.480469 63.210938 84.277344 63.511719 84.015625 63.777344 C 83.75 64.039062 83.445312 64.242188 83.101562 64.386719 C 82.757812 64.527344 82.398438 64.597656 82.027344 64.597656 C 80.476562 64.402344 79.359375 63.679688 79.21875 61.789062 C 79.21875 56.382812 81.535156 56.039062 81.535156 52.039062 C 81.535156 46.324219 76.410156 43.621094 76.410156 39.445312 C 76.410156 38.027344 76.742188 35.617188 78.746094 33.707031 Z M 78.746094 33.707031 "/>
</g>
</svg>
