<?xml version="1.0" encoding="UTF-8"?>
<svg xmlns="http://www.w3.org/2000/svg" xmlns:xlink="http://www.w3.org/1999/xlink" width="506.25pt" height="337.499995pt" viewBox="0 0 506.25 337.499995" version="1.2">
<defs>
<clipPath id="clip1">
  <path d="M 0 0 L 505.5 0 L 505.5 337 L 0 337 Z M 0 0 "/>
</clipPath>
<clipPath id="clip2">
  <path d="M 0 0.152344 L 504.753906 0.152344 L 504.753906 336.046875 L 0 336.046875 Z M 0 0.152344 "/>
</clipPath>
<clipPath id="clip3">
  <path d="M 0 0.152344 L 504.753906 0.152344 L 504.753906 169 L 0 169 Z M 0 0.152344 "/>
</clipPath>
<clipPath id="clip4">
  <path d="M 0 167.601562 L 504.753906 167.601562 L 504.753906 336.046875 L 0 336.046875 Z M 0 167.601562 "/>
</clipPath>
</defs>
<g id="surface1">
<g clip-path="url(#clip1)" clip-rule="nonzero">
<path style=" stroke:none;fill-rule:nonzero;fill:rgb(100%,100%,100%);fill-opacity:1;" d="M 0 0 L 505.5 0 L 505.5 337 L 0 337 Z M 0 0 "/>
<path style=" stroke:none;fill-rule:nonzero;fill:rgb(100%,100%,100%);fill-opacity:1;" d="M 0 0 L 505.5 0 L 505.5 337 L 0 337 Z M 0 0 "/>
</g>
<g clip-path="url(#clip2)" clip-rule="nonzero">
<path style=" stroke:none;fill-rule:nonzero;fill:rgb(100%,100%,100%);fill-opacity:1;" d="M 0 0.152344 L 505.5 0.152344 L 505.5 343.511719 L 0 343.511719 Z M 0 0.152344 "/>
<path style=" stroke:none;fill-rule:nonzero;fill:rgb(100%,100%,100%);fill-opacity:1;" d="M 0 0.152344 L 504.753906 0.152344 L 504.753906 336.046875 L 0 336.046875 Z M 0 0.152344 "/>
<path style=" stroke:none;fill-rule:nonzero;fill:rgb(100%,100%,100%);fill-opacity:1;" d="M 0 0.152344 L 504.753906 0.152344 L 504.753906 336.046875 L 0 336.046875 Z M 0 0.152344 "/>
</g>
<g clip-path="url(#clip3)" clip-rule="nonzero">
<path style=" stroke:none;fill-rule:nonzero;fill:rgb(33.329773%,55.688477%,83.529663%);fill-opacity:1;" d="M 0.0117188 0.152344 L 504.535156 0.152344 L 504.535156 168.773438 L 0.0117188 168.773438 Z M 0.0117188 0.152344 "/>
</g>
<g clip-path="url(#clip4)" clip-rule="nonzero">
<path style=" stroke:none;fill-rule:nonzero;fill:rgb(100%,39.99939%,0%);fill-opacity:1;" d="M 0.0117188 167.761719 L 504.535156 167.761719 L 504.535156 336.382812 L 0.0117188 336.382812 Z M 0.0117188 167.761719 "/>
</g>
</g>
</svg>
